<?xml version="1.0" encoding="utf-8" standalone="no"?>
<!DOCTYPE svg PUBLIC "-//W3C//DTD SVG 1.1//EN"
  "http://www.w3.org/Graphics/SVG/1.1/DTD/svg11.dtd">
<svg height="576pt" version="1.1" viewBox="0 0 1152 576" width="1152pt" xmlns="http://www.w3.org/2000/svg" xmlns:xlink="http://www.w3.org/1999/xlink">
 <metadata>
  <rdf:RDF xmlns:cc="http://creativecommons.org/ns#" xmlns:dc="http://purl.org/dc/elements/1.1/" xmlns:rdf="http://www.w3.org/1999/02/22-rdf-syntax-ns#">
   <cc:Work>
    <dc:type rdf:resource="http://purl.org/dc/dcmitype/StillImage"/>
    <dc:date>2022-07-27T15:01:02.702388</dc:date>
    <dc:format>image/svg+xml</dc:format>
    <dc:creator>
     <cc:Agent>
      <dc:title>Matplotlib v3.4.1, https://matplotlib.org/</dc:title>
     </cc:Agent>
    </dc:creator>
   </cc:Work>
  </rdf:RDF>
 </metadata>
 <defs>
  <style type="text/css">*{stroke-linecap:butt;stroke-linejoin:round;}</style>
 </defs>
 <g id="figure_1">
  <g id="patch_1">
   <path d="M 0 576 
L 1152 576 
L 1152 0 
L 0 0 
z
" style="fill:#ffffff;"/>
  </g>
  <g id="axes_1">
   <g id="patch_2">
    <path d="M 260.958233 415.334504 
Q 304.942743 349.783397 349.550205 283.303888 
" style="fill:none;stroke:#262626;stroke-linecap:round;"/>
    <path d="M 264.584553 413.276685 
L 260.958233 415.334504 
L 261.48777 411.198756 
" style="fill:none;stroke:#262626;stroke-linecap:round;"/>
   </g>
   <g id="text_1">
    <g id="patch_3">
     <path d="M 213.809485 452.857674 
L 280.857182 452.857674 
L 280.857182 418.422326 
L 213.809485 418.422326 
z
" style="fill:#ffffff;stroke:#ffffff;stroke-linejoin:miter;"/>
    </g>
    <!-- mae = 0.731 -->
    <g style="fill:#262626;" transform="translate(221.288526 428.172467)scale(0.093233 -0.093233)">
     <defs>
      <path d="M 422 0 
L 422 3319 
L 925 3319 
L 925 2853 
Q 1081 3097 1340 3245 
Q 1600 3394 1931 3394 
Q 2300 3394 2536 3241 
Q 2772 3088 2869 2813 
Q 3263 3394 3894 3394 
Q 4388 3394 4653 3120 
Q 4919 2847 4919 2278 
L 4919 0 
L 4359 0 
L 4359 2091 
Q 4359 2428 4304 2576 
Q 4250 2725 4106 2815 
Q 3963 2906 3769 2906 
Q 3419 2906 3187 2673 
Q 2956 2441 2956 1928 
L 2956 0 
L 2394 0 
L 2394 2156 
Q 2394 2531 2256 2718 
Q 2119 2906 1806 2906 
Q 1569 2906 1367 2781 
Q 1166 2656 1075 2415 
Q 984 2175 984 1722 
L 984 0 
L 422 0 
z
" id="ArialMT-6d" transform="scale(0.015625)"/>
      <path d="M 2588 409 
Q 2275 144 1986 34 
Q 1697 -75 1366 -75 
Q 819 -75 525 192 
Q 231 459 231 875 
Q 231 1119 342 1320 
Q 453 1522 633 1644 
Q 813 1766 1038 1828 
Q 1203 1872 1538 1913 
Q 2219 1994 2541 2106 
Q 2544 2222 2544 2253 
Q 2544 2597 2384 2738 
Q 2169 2928 1744 2928 
Q 1347 2928 1158 2789 
Q 969 2650 878 2297 
L 328 2372 
Q 403 2725 575 2942 
Q 747 3159 1072 3276 
Q 1397 3394 1825 3394 
Q 2250 3394 2515 3294 
Q 2781 3194 2906 3042 
Q 3031 2891 3081 2659 
Q 3109 2516 3109 2141 
L 3109 1391 
Q 3109 606 3145 398 
Q 3181 191 3288 0 
L 2700 0 
Q 2613 175 2588 409 
z
M 2541 1666 
Q 2234 1541 1622 1453 
Q 1275 1403 1131 1340 
Q 988 1278 909 1158 
Q 831 1038 831 891 
Q 831 666 1001 516 
Q 1172 366 1500 366 
Q 1825 366 2078 508 
Q 2331 650 2450 897 
Q 2541 1088 2541 1459 
L 2541 1666 
z
" id="ArialMT-61" transform="scale(0.015625)"/>
      <path d="M 2694 1069 
L 3275 997 
Q 3138 488 2766 206 
Q 2394 -75 1816 -75 
Q 1088 -75 661 373 
Q 234 822 234 1631 
Q 234 2469 665 2931 
Q 1097 3394 1784 3394 
Q 2450 3394 2872 2941 
Q 3294 2488 3294 1666 
Q 3294 1616 3291 1516 
L 816 1516 
Q 847 969 1125 678 
Q 1403 388 1819 388 
Q 2128 388 2347 550 
Q 2566 713 2694 1069 
z
M 847 1978 
L 2700 1978 
Q 2663 2397 2488 2606 
Q 2219 2931 1791 2931 
Q 1403 2931 1139 2672 
Q 875 2413 847 1978 
z
" id="ArialMT-65" transform="scale(0.015625)"/>
      <path id="ArialMT-20" transform="scale(0.015625)"/>
      <path d="M 3381 2694 
L 356 2694 
L 356 3219 
L 3381 3219 
L 3381 2694 
z
M 3381 1303 
L 356 1303 
L 356 1828 
L 3381 1828 
L 3381 1303 
z
" id="ArialMT-3d" transform="scale(0.015625)"/>
      <path d="M 266 2259 
Q 266 3072 433 3567 
Q 600 4063 929 4331 
Q 1259 4600 1759 4600 
Q 2128 4600 2406 4451 
Q 2684 4303 2865 4023 
Q 3047 3744 3150 3342 
Q 3253 2941 3253 2259 
Q 3253 1453 3087 958 
Q 2922 463 2592 192 
Q 2263 -78 1759 -78 
Q 1097 -78 719 397 
Q 266 969 266 2259 
z
M 844 2259 
Q 844 1131 1108 757 
Q 1372 384 1759 384 
Q 2147 384 2411 759 
Q 2675 1134 2675 2259 
Q 2675 3391 2411 3762 
Q 2147 4134 1753 4134 
Q 1366 4134 1134 3806 
Q 844 3388 844 2259 
z
" id="ArialMT-30" transform="scale(0.015625)"/>
      <path d="M 581 0 
L 581 641 
L 1222 641 
L 1222 0 
L 581 0 
z
" id="ArialMT-2e" transform="scale(0.015625)"/>
      <path d="M 303 3981 
L 303 4522 
L 3269 4522 
L 3269 4084 
Q 2831 3619 2401 2847 
Q 1972 2075 1738 1259 
Q 1569 684 1522 0 
L 944 0 
Q 953 541 1156 1306 
Q 1359 2072 1739 2783 
Q 2119 3494 2547 3981 
L 303 3981 
z
" id="ArialMT-37" transform="scale(0.015625)"/>
      <path d="M 269 1209 
L 831 1284 
Q 928 806 1161 595 
Q 1394 384 1728 384 
Q 2125 384 2398 659 
Q 2672 934 2672 1341 
Q 2672 1728 2419 1979 
Q 2166 2231 1775 2231 
Q 1616 2231 1378 2169 
L 1441 2663 
Q 1497 2656 1531 2656 
Q 1891 2656 2178 2843 
Q 2466 3031 2466 3422 
Q 2466 3731 2256 3934 
Q 2047 4138 1716 4138 
Q 1388 4138 1169 3931 
Q 950 3725 888 3313 
L 325 3413 
Q 428 3978 793 4289 
Q 1159 4600 1703 4600 
Q 2078 4600 2393 4439 
Q 2709 4278 2876 4000 
Q 3044 3722 3044 3409 
Q 3044 3113 2884 2869 
Q 2725 2625 2413 2481 
Q 2819 2388 3044 2092 
Q 3269 1797 3269 1353 
Q 3269 753 2831 336 
Q 2394 -81 1725 -81 
Q 1122 -81 723 278 
Q 325 638 269 1209 
z
" id="ArialMT-33" transform="scale(0.015625)"/>
      <path d="M 2384 0 
L 1822 0 
L 1822 3584 
Q 1619 3391 1289 3197 
Q 959 3003 697 2906 
L 697 3450 
Q 1169 3672 1522 3987 
Q 1875 4303 2022 4600 
L 2384 4600 
L 2384 0 
z
" id="ArialMT-31" transform="scale(0.015625)"/>
     </defs>
     <use xlink:href="#ArialMT-6d"/>
     <use x="83.300781" xlink:href="#ArialMT-61"/>
     <use x="138.916016" xlink:href="#ArialMT-65"/>
     <use x="194.53125" xlink:href="#ArialMT-20"/>
     <use x="222.314453" xlink:href="#ArialMT-3d"/>
     <use x="280.712891" xlink:href="#ArialMT-20"/>
     <use x="308.496094" xlink:href="#ArialMT-30"/>
     <use x="364.111328" xlink:href="#ArialMT-2e"/>
     <use x="391.894531" xlink:href="#ArialMT-37"/>
     <use x="447.509766" xlink:href="#ArialMT-33"/>
     <use x="503.125" xlink:href="#ArialMT-31"/>
    </g>
    <!-- samples = 299 -->
    <g style="fill:#262626;" transform="translate(216.886176 438.066828)scale(0.093233 -0.093233)">
     <defs>
      <path d="M 197 991 
L 753 1078 
Q 800 744 1014 566 
Q 1228 388 1613 388 
Q 2000 388 2187 545 
Q 2375 703 2375 916 
Q 2375 1106 2209 1216 
Q 2094 1291 1634 1406 
Q 1016 1563 777 1677 
Q 538 1791 414 1992 
Q 291 2194 291 2438 
Q 291 2659 392 2848 
Q 494 3038 669 3163 
Q 800 3259 1026 3326 
Q 1253 3394 1513 3394 
Q 1903 3394 2198 3281 
Q 2494 3169 2634 2976 
Q 2775 2784 2828 2463 
L 2278 2388 
Q 2241 2644 2061 2787 
Q 1881 2931 1553 2931 
Q 1166 2931 1000 2803 
Q 834 2675 834 2503 
Q 834 2394 903 2306 
Q 972 2216 1119 2156 
Q 1203 2125 1616 2013 
Q 2213 1853 2448 1751 
Q 2684 1650 2818 1456 
Q 2953 1263 2953 975 
Q 2953 694 2789 445 
Q 2625 197 2315 61 
Q 2006 -75 1616 -75 
Q 969 -75 630 194 
Q 291 463 197 991 
z
" id="ArialMT-73" transform="scale(0.015625)"/>
      <path d="M 422 -1272 
L 422 3319 
L 934 3319 
L 934 2888 
Q 1116 3141 1344 3267 
Q 1572 3394 1897 3394 
Q 2322 3394 2647 3175 
Q 2972 2956 3137 2557 
Q 3303 2159 3303 1684 
Q 3303 1175 3120 767 
Q 2938 359 2589 142 
Q 2241 -75 1856 -75 
Q 1575 -75 1351 44 
Q 1128 163 984 344 
L 984 -1272 
L 422 -1272 
z
M 931 1641 
Q 931 1000 1190 694 
Q 1450 388 1819 388 
Q 2194 388 2461 705 
Q 2728 1022 2728 1688 
Q 2728 2322 2467 2637 
Q 2206 2953 1844 2953 
Q 1484 2953 1207 2617 
Q 931 2281 931 1641 
z
" id="ArialMT-70" transform="scale(0.015625)"/>
      <path d="M 409 0 
L 409 4581 
L 972 4581 
L 972 0 
L 409 0 
z
" id="ArialMT-6c" transform="scale(0.015625)"/>
      <path d="M 3222 541 
L 3222 0 
L 194 0 
Q 188 203 259 391 
Q 375 700 629 1000 
Q 884 1300 1366 1694 
Q 2113 2306 2375 2664 
Q 2638 3022 2638 3341 
Q 2638 3675 2398 3904 
Q 2159 4134 1775 4134 
Q 1369 4134 1125 3890 
Q 881 3647 878 3216 
L 300 3275 
Q 359 3922 746 4261 
Q 1134 4600 1788 4600 
Q 2447 4600 2831 4234 
Q 3216 3869 3216 3328 
Q 3216 3053 3103 2787 
Q 2991 2522 2730 2228 
Q 2469 1934 1863 1422 
Q 1356 997 1212 845 
Q 1069 694 975 541 
L 3222 541 
z
" id="ArialMT-32" transform="scale(0.015625)"/>
      <path d="M 350 1059 
L 891 1109 
Q 959 728 1153 556 
Q 1347 384 1650 384 
Q 1909 384 2104 503 
Q 2300 622 2425 820 
Q 2550 1019 2634 1356 
Q 2719 1694 2719 2044 
Q 2719 2081 2716 2156 
Q 2547 1888 2255 1720 
Q 1963 1553 1622 1553 
Q 1053 1553 659 1965 
Q 266 2378 266 3053 
Q 266 3750 677 4175 
Q 1088 4600 1706 4600 
Q 2153 4600 2523 4359 
Q 2894 4119 3086 3673 
Q 3278 3228 3278 2384 
Q 3278 1506 3087 986 
Q 2897 466 2520 194 
Q 2144 -78 1638 -78 
Q 1100 -78 759 220 
Q 419 519 350 1059 
z
M 2653 3081 
Q 2653 3566 2395 3850 
Q 2138 4134 1775 4134 
Q 1400 4134 1122 3828 
Q 844 3522 844 3034 
Q 844 2597 1108 2323 
Q 1372 2050 1759 2050 
Q 2150 2050 2401 2323 
Q 2653 2597 2653 3081 
z
" id="ArialMT-39" transform="scale(0.015625)"/>
     </defs>
     <use xlink:href="#ArialMT-73"/>
     <use x="50" xlink:href="#ArialMT-61"/>
     <use x="105.615234" xlink:href="#ArialMT-6d"/>
     <use x="188.916016" xlink:href="#ArialMT-70"/>
     <use x="244.53125" xlink:href="#ArialMT-6c"/>
     <use x="266.748047" xlink:href="#ArialMT-65"/>
     <use x="322.363281" xlink:href="#ArialMT-73"/>
     <use x="372.363281" xlink:href="#ArialMT-20"/>
     <use x="400.146484" xlink:href="#ArialMT-3d"/>
     <use x="458.544922" xlink:href="#ArialMT-20"/>
     <use x="486.328125" xlink:href="#ArialMT-32"/>
     <use x="541.943359" xlink:href="#ArialMT-39"/>
     <use x="597.558594" xlink:href="#ArialMT-39"/>
    </g>
    <!-- value = 0.5 -->
    <g style="fill:#262626;" transform="translate(224.397267 447.927975)scale(0.093233 -0.093233)">
     <defs>
      <path d="M 1344 0 
L 81 3319 
L 675 3319 
L 1388 1331 
Q 1503 1009 1600 663 
Q 1675 925 1809 1294 
L 2547 3319 
L 3125 3319 
L 1869 0 
L 1344 0 
z
" id="ArialMT-76" transform="scale(0.015625)"/>
      <path d="M 2597 0 
L 2597 488 
Q 2209 -75 1544 -75 
Q 1250 -75 995 37 
Q 741 150 617 320 
Q 494 491 444 738 
Q 409 903 409 1263 
L 409 3319 
L 972 3319 
L 972 1478 
Q 972 1038 1006 884 
Q 1059 663 1231 536 
Q 1403 409 1656 409 
Q 1909 409 2131 539 
Q 2353 669 2445 892 
Q 2538 1116 2538 1541 
L 2538 3319 
L 3100 3319 
L 3100 0 
L 2597 0 
z
" id="ArialMT-75" transform="scale(0.015625)"/>
      <path d="M 266 1200 
L 856 1250 
Q 922 819 1161 601 
Q 1400 384 1738 384 
Q 2144 384 2425 690 
Q 2706 997 2706 1503 
Q 2706 1984 2436 2262 
Q 2166 2541 1728 2541 
Q 1456 2541 1237 2417 
Q 1019 2294 894 2097 
L 366 2166 
L 809 4519 
L 3088 4519 
L 3088 3981 
L 1259 3981 
L 1013 2750 
Q 1425 3038 1878 3038 
Q 2478 3038 2890 2622 
Q 3303 2206 3303 1553 
Q 3303 931 2941 478 
Q 2500 -78 1738 -78 
Q 1113 -78 717 272 
Q 322 622 266 1200 
z
" id="ArialMT-35" transform="scale(0.015625)"/>
     </defs>
     <use xlink:href="#ArialMT-76"/>
     <use x="50" xlink:href="#ArialMT-61"/>
     <use x="105.615234" xlink:href="#ArialMT-6c"/>
     <use x="127.832031" xlink:href="#ArialMT-75"/>
     <use x="183.447266" xlink:href="#ArialMT-65"/>
     <use x="239.0625" xlink:href="#ArialMT-20"/>
     <use x="266.845703" xlink:href="#ArialMT-3d"/>
     <use x="325.244141" xlink:href="#ArialMT-20"/>
     <use x="353.027344" xlink:href="#ArialMT-30"/>
     <use x="408.642578" xlink:href="#ArialMT-2e"/>
     <use x="436.425781" xlink:href="#ArialMT-35"/>
    </g>
   </g>
   <g id="patch_4">
    <path d="M 440.384445 415.348431 
Q 396.395321 349.790446 351.783244 283.30406 
" style="fill:none;stroke:#262626;stroke-linecap:round;"/>
    <path d="M 439.854909 411.212684 
L 440.384445 415.348431 
L 436.758125 413.290612 
" style="fill:none;stroke:#262626;stroke-linecap:round;"/>
   </g>
   <g id="text_2">
    <g id="patch_5">
     <path d="M 423.068468 452.841067 
L 484.931532 452.841067 
L 484.931532 418.438933 
L 423.068468 418.438933 
z
" style="fill:#fdf5f0;stroke:#ffffff;stroke-linejoin:miter;"/>
    </g>
    <!-- mae = 0.682 -->
    <g style="fill:#262626;" transform="translate(427.955193 428.189074)scale(0.093233 -0.093233)">
     <defs>
      <path d="M 3184 3459 
L 2625 3416 
Q 2550 3747 2413 3897 
Q 2184 4138 1850 4138 
Q 1581 4138 1378 3988 
Q 1113 3794 959 3422 
Q 806 3050 800 2363 
Q 1003 2672 1297 2822 
Q 1591 2972 1913 2972 
Q 2475 2972 2870 2558 
Q 3266 2144 3266 1488 
Q 3266 1056 3080 686 
Q 2894 316 2569 119 
Q 2244 -78 1831 -78 
Q 1128 -78 684 439 
Q 241 956 241 2144 
Q 241 3472 731 4075 
Q 1159 4600 1884 4600 
Q 2425 4600 2770 4297 
Q 3116 3994 3184 3459 
z
M 888 1484 
Q 888 1194 1011 928 
Q 1134 663 1356 523 
Q 1578 384 1822 384 
Q 2178 384 2434 671 
Q 2691 959 2691 1453 
Q 2691 1928 2437 2201 
Q 2184 2475 1800 2475 
Q 1419 2475 1153 2201 
Q 888 1928 888 1484 
z
" id="ArialMT-36" transform="scale(0.015625)"/>
      <path d="M 1131 2484 
Q 781 2613 612 2850 
Q 444 3088 444 3419 
Q 444 3919 803 4259 
Q 1163 4600 1759 4600 
Q 2359 4600 2725 4251 
Q 3091 3903 3091 3403 
Q 3091 3084 2923 2848 
Q 2756 2613 2416 2484 
Q 2838 2347 3058 2040 
Q 3278 1734 3278 1309 
Q 3278 722 2862 322 
Q 2447 -78 1769 -78 
Q 1091 -78 675 323 
Q 259 725 259 1325 
Q 259 1772 486 2073 
Q 713 2375 1131 2484 
z
M 1019 3438 
Q 1019 3113 1228 2906 
Q 1438 2700 1772 2700 
Q 2097 2700 2305 2904 
Q 2513 3109 2513 3406 
Q 2513 3716 2298 3927 
Q 2084 4138 1766 4138 
Q 1444 4138 1231 3931 
Q 1019 3725 1019 3438 
z
M 838 1322 
Q 838 1081 952 856 
Q 1066 631 1291 507 
Q 1516 384 1775 384 
Q 2178 384 2440 643 
Q 2703 903 2703 1303 
Q 2703 1709 2433 1975 
Q 2163 2241 1756 2241 
Q 1359 2241 1098 1978 
Q 838 1716 838 1322 
z
" id="ArialMT-38" transform="scale(0.015625)"/>
     </defs>
     <use xlink:href="#ArialMT-6d"/>
     <use x="83.300781" xlink:href="#ArialMT-61"/>
     <use x="138.916016" xlink:href="#ArialMT-65"/>
     <use x="194.53125" xlink:href="#ArialMT-20"/>
     <use x="222.314453" xlink:href="#ArialMT-3d"/>
     <use x="280.712891" xlink:href="#ArialMT-20"/>
     <use x="308.496094" xlink:href="#ArialMT-30"/>
     <use x="364.111328" xlink:href="#ArialMT-2e"/>
     <use x="391.894531" xlink:href="#ArialMT-36"/>
     <use x="447.509766" xlink:href="#ArialMT-38"/>
     <use x="503.125" xlink:href="#ArialMT-32"/>
    </g>
    <!-- samples = 74 -->
    <g style="fill:#262626;" transform="translate(426.14516 438.050221)scale(0.093233 -0.093233)">
     <defs>
      <path d="M 2069 0 
L 2069 1097 
L 81 1097 
L 81 1613 
L 2172 4581 
L 2631 4581 
L 2631 1613 
L 3250 1613 
L 3250 1097 
L 2631 1097 
L 2631 0 
L 2069 0 
z
M 2069 1613 
L 2069 3678 
L 634 1613 
L 2069 1613 
z
" id="ArialMT-34" transform="scale(0.015625)"/>
     </defs>
     <use xlink:href="#ArialMT-73"/>
     <use x="50" xlink:href="#ArialMT-61"/>
     <use x="105.615234" xlink:href="#ArialMT-6d"/>
     <use x="188.916016" xlink:href="#ArialMT-70"/>
     <use x="244.53125" xlink:href="#ArialMT-6c"/>
     <use x="266.748047" xlink:href="#ArialMT-65"/>
     <use x="322.363281" xlink:href="#ArialMT-73"/>
     <use x="372.363281" xlink:href="#ArialMT-20"/>
     <use x="400.146484" xlink:href="#ArialMT-3d"/>
     <use x="458.544922" xlink:href="#ArialMT-20"/>
     <use x="486.328125" xlink:href="#ArialMT-37"/>
     <use x="541.943359" xlink:href="#ArialMT-34"/>
    </g>
    <!-- value = 1.0 -->
    <g style="fill:#262626;" transform="translate(431.063933 447.911367)scale(0.093233 -0.093233)">
     <use xlink:href="#ArialMT-76"/>
     <use x="50" xlink:href="#ArialMT-61"/>
     <use x="105.615234" xlink:href="#ArialMT-6c"/>
     <use x="127.832031" xlink:href="#ArialMT-75"/>
     <use x="183.447266" xlink:href="#ArialMT-65"/>
     <use x="239.0625" xlink:href="#ArialMT-20"/>
     <use x="266.845703" xlink:href="#ArialMT-3d"/>
     <use x="325.244141" xlink:href="#ArialMT-20"/>
     <use x="353.027344" xlink:href="#ArialMT-31"/>
     <use x="408.642578" xlink:href="#ArialMT-2e"/>
     <use x="436.425781" xlink:href="#ArialMT-30"/>
    </g>
   </g>
   <g id="patch_6">
    <path d="M 674.291567 415.334504 
Q 718.276076 349.783397 762.883538 283.303888 
" style="fill:none;stroke:#262626;stroke-linecap:round;"/>
    <path d="M 677.917886 413.276685 
L 674.291567 415.334504 
L 674.821103 411.198756 
" style="fill:none;stroke:#262626;stroke-linecap:round;"/>
   </g>
   <g id="text_3">
    <g id="patch_7">
     <path d="M 629.735135 452.857674 
L 691.598199 452.857674 
L 691.598199 418.422326 
L 629.735135 418.422326 
z
" style="fill:#f9e2d1;stroke:#ffffff;stroke-linejoin:miter;"/>
    </g>
    <!-- mae = 0.541 -->
    <g style="fill:#262626;" transform="translate(634.621859 428.172467)scale(0.093233 -0.093233)">
     <use xlink:href="#ArialMT-6d"/>
     <use x="83.300781" xlink:href="#ArialMT-61"/>
     <use x="138.916016" xlink:href="#ArialMT-65"/>
     <use x="194.53125" xlink:href="#ArialMT-20"/>
     <use x="222.314453" xlink:href="#ArialMT-3d"/>
     <use x="280.712891" xlink:href="#ArialMT-20"/>
     <use x="308.496094" xlink:href="#ArialMT-30"/>
     <use x="364.111328" xlink:href="#ArialMT-2e"/>
     <use x="391.894531" xlink:href="#ArialMT-35"/>
     <use x="447.509766" xlink:href="#ArialMT-34"/>
     <use x="503.125" xlink:href="#ArialMT-31"/>
    </g>
    <!-- samples = 37 -->
    <g style="fill:#262626;" transform="translate(632.811826 438.066828)scale(0.093233 -0.093233)">
     <use xlink:href="#ArialMT-73"/>
     <use x="50" xlink:href="#ArialMT-61"/>
     <use x="105.615234" xlink:href="#ArialMT-6d"/>
     <use x="188.916016" xlink:href="#ArialMT-70"/>
     <use x="244.53125" xlink:href="#ArialMT-6c"/>
     <use x="266.748047" xlink:href="#ArialMT-65"/>
     <use x="322.363281" xlink:href="#ArialMT-73"/>
     <use x="372.363281" xlink:href="#ArialMT-20"/>
     <use x="400.146484" xlink:href="#ArialMT-3d"/>
     <use x="458.544922" xlink:href="#ArialMT-20"/>
     <use x="486.328125" xlink:href="#ArialMT-33"/>
     <use x="541.943359" xlink:href="#ArialMT-37"/>
    </g>
    <!-- value = 2.0 -->
    <g style="fill:#262626;" transform="translate(637.7306 447.927975)scale(0.093233 -0.093233)">
     <use xlink:href="#ArialMT-76"/>
     <use x="50" xlink:href="#ArialMT-61"/>
     <use x="105.615234" xlink:href="#ArialMT-6c"/>
     <use x="127.832031" xlink:href="#ArialMT-75"/>
     <use x="183.447266" xlink:href="#ArialMT-65"/>
     <use x="239.0625" xlink:href="#ArialMT-20"/>
     <use x="266.845703" xlink:href="#ArialMT-3d"/>
     <use x="325.244141" xlink:href="#ArialMT-20"/>
     <use x="353.027344" xlink:href="#ArialMT-32"/>
     <use x="408.642578" xlink:href="#ArialMT-2e"/>
     <use x="436.425781" xlink:href="#ArialMT-30"/>
    </g>
   </g>
   <g id="patch_8">
    <path d="M 853.708433 415.334504 
Q 809.723924 349.783397 765.116462 283.303888 
" style="fill:none;stroke:#262626;stroke-linecap:round;"/>
    <path d="M 853.178897 411.198756 
L 853.708433 415.334504 
L 850.082114 413.276685 
" style="fill:none;stroke:#262626;stroke-linecap:round;"/>
   </g>
   <g id="text_4">
    <g id="patch_9">
     <path d="M 838.211834 452.857674 
L 896.454832 452.857674 
L 896.454832 418.422326 
L 838.211834 418.422326 
z
" style="fill:#fdf5f0;stroke:#ffffff;stroke-linejoin:miter;"/>
    </g>
    <!-- mae = 0.667 -->
    <g style="fill:#262626;" transform="translate(841.288526 428.172467)scale(0.093233 -0.093233)">
     <use xlink:href="#ArialMT-6d"/>
     <use x="83.300781" xlink:href="#ArialMT-61"/>
     <use x="138.916016" xlink:href="#ArialMT-65"/>
     <use x="194.53125" xlink:href="#ArialMT-20"/>
     <use x="222.314453" xlink:href="#ArialMT-3d"/>
     <use x="280.712891" xlink:href="#ArialMT-20"/>
     <use x="308.496094" xlink:href="#ArialMT-30"/>
     <use x="364.111328" xlink:href="#ArialMT-2e"/>
     <use x="391.894531" xlink:href="#ArialMT-36"/>
     <use x="447.509766" xlink:href="#ArialMT-36"/>
     <use x="503.125" xlink:href="#ArialMT-37"/>
    </g>
    <!-- samples = 3 -->
    <g style="fill:#262626;" transform="translate(842.07081 438.066828)scale(0.093233 -0.093233)">
     <use xlink:href="#ArialMT-73"/>
     <use x="50" xlink:href="#ArialMT-61"/>
     <use x="105.615234" xlink:href="#ArialMT-6d"/>
     <use x="188.916016" xlink:href="#ArialMT-70"/>
     <use x="244.53125" xlink:href="#ArialMT-6c"/>
     <use x="266.748047" xlink:href="#ArialMT-65"/>
     <use x="322.363281" xlink:href="#ArialMT-73"/>
     <use x="372.363281" xlink:href="#ArialMT-20"/>
     <use x="400.146484" xlink:href="#ArialMT-3d"/>
     <use x="458.544922" xlink:href="#ArialMT-20"/>
     <use x="486.328125" xlink:href="#ArialMT-33"/>
    </g>
    <!-- value = 1.0 -->
    <g style="fill:#262626;" transform="translate(844.397267 447.927975)scale(0.093233 -0.093233)">
     <use xlink:href="#ArialMT-76"/>
     <use x="50" xlink:href="#ArialMT-61"/>
     <use x="105.615234" xlink:href="#ArialMT-6c"/>
     <use x="127.832031" xlink:href="#ArialMT-75"/>
     <use x="183.447266" xlink:href="#ArialMT-65"/>
     <use x="239.0625" xlink:href="#ArialMT-20"/>
     <use x="266.845703" xlink:href="#ArialMT-3d"/>
     <use x="325.244141" xlink:href="#ArialMT-20"/>
     <use x="353.027344" xlink:href="#ArialMT-31"/>
     <use x="408.642578" xlink:href="#ArialMT-2e"/>
     <use x="436.425781" xlink:href="#ArialMT-30"/>
    </g>
   </g>
   <g id="patch_10">
    <path d="M 1087.6249 415.334504 
Q 1131.609409 349.783397 1176.216872 283.303888 
" style="fill:none;stroke:#262626;stroke-linecap:round;"/>
    <path d="M 1091.25122 413.276685 
L 1087.6249 415.334504 
L 1088.154437 411.198756 
" style="fill:none;stroke:#262626;stroke-linecap:round;"/>
   </g>
   <g id="text_5">
    <g id="patch_11">
     <path d="M 1045.660785 452.857674 
L 1102.339215 452.857674 
L 1102.339215 418.422326 
L 1045.660785 418.422326 
z
" style="fill:#ffffff;stroke:#ffffff;stroke-linejoin:miter;"/>
    </g>
    <!-- mae = 0.5 -->
    <g style="fill:#262626;" transform="translate(1053.139826 428.172467)scale(0.093233 -0.093233)">
     <use xlink:href="#ArialMT-6d"/>
     <use x="83.300781" xlink:href="#ArialMT-61"/>
     <use x="138.916016" xlink:href="#ArialMT-65"/>
     <use x="194.53125" xlink:href="#ArialMT-20"/>
     <use x="222.314453" xlink:href="#ArialMT-3d"/>
     <use x="280.712891" xlink:href="#ArialMT-20"/>
     <use x="308.496094" xlink:href="#ArialMT-30"/>
     <use x="364.111328" xlink:href="#ArialMT-2e"/>
     <use x="391.894531" xlink:href="#ArialMT-35"/>
    </g>
    <!-- samples = 6 -->
    <g style="fill:#262626;" transform="translate(1048.737477 438.066828)scale(0.093233 -0.093233)">
     <use xlink:href="#ArialMT-73"/>
     <use x="50" xlink:href="#ArialMT-61"/>
     <use x="105.615234" xlink:href="#ArialMT-6d"/>
     <use x="188.916016" xlink:href="#ArialMT-70"/>
     <use x="244.53125" xlink:href="#ArialMT-6c"/>
     <use x="266.748047" xlink:href="#ArialMT-65"/>
     <use x="322.363281" xlink:href="#ArialMT-73"/>
     <use x="372.363281" xlink:href="#ArialMT-20"/>
     <use x="400.146484" xlink:href="#ArialMT-3d"/>
     <use x="458.544922" xlink:href="#ArialMT-20"/>
     <use x="486.328125" xlink:href="#ArialMT-36"/>
    </g>
    <!-- value = 0.5 -->
    <g style="fill:#262626;" transform="translate(1051.063933 447.927975)scale(0.093233 -0.093233)">
     <use xlink:href="#ArialMT-76"/>
     <use x="50" xlink:href="#ArialMT-61"/>
     <use x="105.615234" xlink:href="#ArialMT-6c"/>
     <use x="127.832031" xlink:href="#ArialMT-75"/>
     <use x="183.447266" xlink:href="#ArialMT-65"/>
     <use x="239.0625" xlink:href="#ArialMT-20"/>
     <use x="266.845703" xlink:href="#ArialMT-3d"/>
     <use x="325.244141" xlink:href="#ArialMT-20"/>
     <use x="353.027344" xlink:href="#ArialMT-30"/>
     <use x="408.642578" xlink:href="#ArialMT-2e"/>
     <use x="436.425781" xlink:href="#ArialMT-35"/>
    </g>
   </g>
   <g id="patch_12">
    <path d="M 1267.041767 415.334504 
Q 1223.057257 349.783397 1178.449795 283.303888 
" style="fill:none;stroke:#262626;stroke-linecap:round;"/>
    <path d="M 1266.51223 411.198756 
L 1267.041767 415.334504 
L 1263.415447 413.276685 
" style="fill:none;stroke:#262626;stroke-linecap:round;"/>
   </g>
   <g id="text_6">
    <g id="patch_13">
     <path d="M 1252.327451 452.857674 
L 1309.005882 452.857674 
L 1309.005882 418.422326 
L 1252.327451 418.422326 
z
" style="fill:#f5cfb3;stroke:#ffffff;stroke-linejoin:miter;"/>
    </g>
    <!-- mae = 0.0 -->
    <g style="fill:#262626;" transform="translate(1259.806493 428.172467)scale(0.093233 -0.093233)">
     <use xlink:href="#ArialMT-6d"/>
     <use x="83.300781" xlink:href="#ArialMT-61"/>
     <use x="138.916016" xlink:href="#ArialMT-65"/>
     <use x="194.53125" xlink:href="#ArialMT-20"/>
     <use x="222.314453" xlink:href="#ArialMT-3d"/>
     <use x="280.712891" xlink:href="#ArialMT-20"/>
     <use x="308.496094" xlink:href="#ArialMT-30"/>
     <use x="364.111328" xlink:href="#ArialMT-2e"/>
     <use x="391.894531" xlink:href="#ArialMT-30"/>
    </g>
    <!-- samples = 1 -->
    <g style="fill:#262626;" transform="translate(1255.404143 438.066828)scale(0.093233 -0.093233)">
     <use xlink:href="#ArialMT-73"/>
     <use x="50" xlink:href="#ArialMT-61"/>
     <use x="105.615234" xlink:href="#ArialMT-6d"/>
     <use x="188.916016" xlink:href="#ArialMT-70"/>
     <use x="244.53125" xlink:href="#ArialMT-6c"/>
     <use x="266.748047" xlink:href="#ArialMT-65"/>
     <use x="322.363281" xlink:href="#ArialMT-73"/>
     <use x="372.363281" xlink:href="#ArialMT-20"/>
     <use x="400.146484" xlink:href="#ArialMT-3d"/>
     <use x="458.544922" xlink:href="#ArialMT-20"/>
     <use x="486.328125" xlink:href="#ArialMT-31"/>
    </g>
    <!-- value = 3.0 -->
    <g style="fill:#262626;" transform="translate(1257.7306 447.927975)scale(0.093233 -0.093233)">
     <use xlink:href="#ArialMT-76"/>
     <use x="50" xlink:href="#ArialMT-61"/>
     <use x="105.615234" xlink:href="#ArialMT-6c"/>
     <use x="127.832031" xlink:href="#ArialMT-75"/>
     <use x="183.447266" xlink:href="#ArialMT-65"/>
     <use x="239.0625" xlink:href="#ArialMT-20"/>
     <use x="266.845703" xlink:href="#ArialMT-3d"/>
     <use x="325.244141" xlink:href="#ArialMT-20"/>
     <use x="353.027344" xlink:href="#ArialMT-33"/>
     <use x="408.642578" xlink:href="#ArialMT-2e"/>
     <use x="436.425781" xlink:href="#ArialMT-30"/>
    </g>
   </g>
   <g id="patch_14">
    <path d="M 367.719246 256.226156 
Q 409.989881 193.229274 452.88347 129.30399 
" style="fill:none;stroke:#262626;stroke-linecap:round;"/>
    <path d="M 371.345566 254.168337 
L 367.719246 256.226156 
L 368.248783 252.090408 
" style="fill:none;stroke:#262626;stroke-linecap:round;"/>
   </g>
   <g id="text_7">
    <g id="patch_15">
     <path d="M 293.428109 303.856715 
L 407.905224 303.856715 
L 407.905224 259.314027 
L 293.428109 259.314027 
z
" style="fill:#fdf5f0;stroke:#ffffff;stroke-linejoin:miter;"/>
    </g>
    <!-- knee_intensity_kite &lt;= 0.5 -->
    <g style="fill:#262626;" transform="translate(296.504801 269.201104)scale(0.093233 -0.093233)">
     <defs>
      <path d="M 425 0 
L 425 4581 
L 988 4581 
L 988 1969 
L 2319 3319 
L 3047 3319 
L 1778 2088 
L 3175 0 
L 2481 0 
L 1384 1697 
L 988 1316 
L 988 0 
L 425 0 
z
" id="ArialMT-6b" transform="scale(0.015625)"/>
      <path d="M 422 0 
L 422 3319 
L 928 3319 
L 928 2847 
Q 1294 3394 1984 3394 
Q 2284 3394 2536 3286 
Q 2788 3178 2913 3003 
Q 3038 2828 3088 2588 
Q 3119 2431 3119 2041 
L 3119 0 
L 2556 0 
L 2556 2019 
Q 2556 2363 2490 2533 
Q 2425 2703 2258 2804 
Q 2091 2906 1866 2906 
Q 1506 2906 1245 2678 
Q 984 2450 984 1813 
L 984 0 
L 422 0 
z
" id="ArialMT-6e" transform="scale(0.015625)"/>
      <path d="M -97 -1272 
L -97 -866 
L 3631 -866 
L 3631 -1272 
L -97 -1272 
z
" id="ArialMT-5f" transform="scale(0.015625)"/>
      <path d="M 425 3934 
L 425 4581 
L 988 4581 
L 988 3934 
L 425 3934 
z
M 425 0 
L 425 3319 
L 988 3319 
L 988 0 
L 425 0 
z
" id="ArialMT-69" transform="scale(0.015625)"/>
      <path d="M 1650 503 
L 1731 6 
Q 1494 -44 1306 -44 
Q 1000 -44 831 53 
Q 663 150 594 308 
Q 525 466 525 972 
L 525 2881 
L 113 2881 
L 113 3319 
L 525 3319 
L 525 4141 
L 1084 4478 
L 1084 3319 
L 1650 3319 
L 1650 2881 
L 1084 2881 
L 1084 941 
Q 1084 700 1114 631 
Q 1144 563 1211 522 
Q 1278 481 1403 481 
Q 1497 481 1650 503 
z
" id="ArialMT-74" transform="scale(0.015625)"/>
      <path d="M 397 -1278 
L 334 -750 
Q 519 -800 656 -800 
Q 844 -800 956 -737 
Q 1069 -675 1141 -563 
Q 1194 -478 1313 -144 
Q 1328 -97 1363 -6 
L 103 3319 
L 709 3319 
L 1400 1397 
Q 1534 1031 1641 628 
Q 1738 1016 1872 1384 
L 2581 3319 
L 3144 3319 
L 1881 -56 
Q 1678 -603 1566 -809 
Q 1416 -1088 1222 -1217 
Q 1028 -1347 759 -1347 
Q 597 -1347 397 -1278 
z
" id="ArialMT-79" transform="scale(0.015625)"/>
      <path d="M 350 2003 
L 350 2528 
L 3384 3809 
L 3384 3250 
L 978 2263 
L 3384 1266 
L 3384 706 
L 350 2003 
z
" id="ArialMT-3c" transform="scale(0.015625)"/>
     </defs>
     <use xlink:href="#ArialMT-6b"/>
     <use x="50" xlink:href="#ArialMT-6e"/>
     <use x="105.615234" xlink:href="#ArialMT-65"/>
     <use x="161.230469" xlink:href="#ArialMT-65"/>
     <use x="216.845703" xlink:href="#ArialMT-5f"/>
     <use x="272.460938" xlink:href="#ArialMT-69"/>
     <use x="294.677734" xlink:href="#ArialMT-6e"/>
     <use x="350.292969" xlink:href="#ArialMT-74"/>
     <use x="378.076172" xlink:href="#ArialMT-65"/>
     <use x="433.691406" xlink:href="#ArialMT-6e"/>
     <use x="489.306641" xlink:href="#ArialMT-73"/>
     <use x="539.306641" xlink:href="#ArialMT-69"/>
     <use x="561.523438" xlink:href="#ArialMT-74"/>
     <use x="589.306641" xlink:href="#ArialMT-79"/>
     <use x="639.306641" xlink:href="#ArialMT-5f"/>
     <use x="694.921875" xlink:href="#ArialMT-6b"/>
     <use x="744.921875" xlink:href="#ArialMT-69"/>
     <use x="767.138672" xlink:href="#ArialMT-74"/>
     <use x="794.921875" xlink:href="#ArialMT-65"/>
     <use x="850.537109" xlink:href="#ArialMT-20"/>
     <use x="878.320312" xlink:href="#ArialMT-3c"/>
     <use x="936.71875" xlink:href="#ArialMT-3d"/>
     <use x="995.117188" xlink:href="#ArialMT-20"/>
     <use x="1022.900391" xlink:href="#ArialMT-30"/>
     <use x="1078.515625" xlink:href="#ArialMT-2e"/>
     <use x="1106.298828" xlink:href="#ArialMT-35"/>
    </g>
    <!-- mae = 0.733 -->
    <g style="fill:#262626;" transform="translate(324.621859 279.171508)scale(0.093233 -0.093233)">
     <use xlink:href="#ArialMT-6d"/>
     <use x="83.300781" xlink:href="#ArialMT-61"/>
     <use x="138.916016" xlink:href="#ArialMT-65"/>
     <use x="194.53125" xlink:href="#ArialMT-20"/>
     <use x="222.314453" xlink:href="#ArialMT-3d"/>
     <use x="280.712891" xlink:href="#ArialMT-20"/>
     <use x="308.496094" xlink:href="#ArialMT-30"/>
     <use x="364.111328" xlink:href="#ArialMT-2e"/>
     <use x="391.894531" xlink:href="#ArialMT-37"/>
     <use x="447.509766" xlink:href="#ArialMT-33"/>
     <use x="503.125" xlink:href="#ArialMT-33"/>
    </g>
    <!-- samples = 373 -->
    <g style="fill:#262626;" transform="translate(320.21951 289.065869)scale(0.093233 -0.093233)">
     <use xlink:href="#ArialMT-73"/>
     <use x="50" xlink:href="#ArialMT-61"/>
     <use x="105.615234" xlink:href="#ArialMT-6d"/>
     <use x="188.916016" xlink:href="#ArialMT-70"/>
     <use x="244.53125" xlink:href="#ArialMT-6c"/>
     <use x="266.748047" xlink:href="#ArialMT-65"/>
     <use x="322.363281" xlink:href="#ArialMT-73"/>
     <use x="372.363281" xlink:href="#ArialMT-20"/>
     <use x="400.146484" xlink:href="#ArialMT-3d"/>
     <use x="458.544922" xlink:href="#ArialMT-20"/>
     <use x="486.328125" xlink:href="#ArialMT-33"/>
     <use x="541.943359" xlink:href="#ArialMT-37"/>
     <use x="597.558594" xlink:href="#ArialMT-33"/>
    </g>
    <!-- value = 1.0 -->
    <g style="fill:#262626;" transform="translate(327.7306 298.927016)scale(0.093233 -0.093233)">
     <use xlink:href="#ArialMT-76"/>
     <use x="50" xlink:href="#ArialMT-61"/>
     <use x="105.615234" xlink:href="#ArialMT-6c"/>
     <use x="127.832031" xlink:href="#ArialMT-75"/>
     <use x="183.447266" xlink:href="#ArialMT-65"/>
     <use x="239.0625" xlink:href="#ArialMT-20"/>
     <use x="266.845703" xlink:href="#ArialMT-3d"/>
     <use x="325.244141" xlink:href="#ArialMT-20"/>
     <use x="353.027344" xlink:href="#ArialMT-31"/>
     <use x="408.642578" xlink:href="#ArialMT-2e"/>
     <use x="436.425781" xlink:href="#ArialMT-30"/>
    </g>
   </g>
   <g id="patch_16">
    <path d="M 543.708433 261.334504 
Q 499.723924 195.783397 455.116462 129.303888 
" style="fill:none;stroke:#262626;stroke-linecap:round;"/>
    <path d="M 543.178897 257.198756 
L 543.708433 261.334504 
L 540.082114 259.276685 
" style="fill:none;stroke:#262626;stroke-linecap:round;"/>
   </g>
   <g id="text_8">
    <g id="patch_17">
     <path d="M 528.994118 298.857674 
L 585.672549 298.857674 
L 585.672549 264.422326 
L 528.994118 264.422326 
z
" style="fill:#e58139;stroke:#ffffff;stroke-linejoin:miter;"/>
    </g>
    <!-- mae = 0.0 -->
    <g style="fill:#262626;" transform="translate(536.473159 274.172467)scale(0.093233 -0.093233)">
     <use xlink:href="#ArialMT-6d"/>
     <use x="83.300781" xlink:href="#ArialMT-61"/>
     <use x="138.916016" xlink:href="#ArialMT-65"/>
     <use x="194.53125" xlink:href="#ArialMT-20"/>
     <use x="222.314453" xlink:href="#ArialMT-3d"/>
     <use x="280.712891" xlink:href="#ArialMT-20"/>
     <use x="308.496094" xlink:href="#ArialMT-30"/>
     <use x="364.111328" xlink:href="#ArialMT-2e"/>
     <use x="391.894531" xlink:href="#ArialMT-30"/>
    </g>
    <!-- samples = 1 -->
    <g style="fill:#262626;" transform="translate(532.07081 284.066828)scale(0.093233 -0.093233)">
     <use xlink:href="#ArialMT-73"/>
     <use x="50" xlink:href="#ArialMT-61"/>
     <use x="105.615234" xlink:href="#ArialMT-6d"/>
     <use x="188.916016" xlink:href="#ArialMT-70"/>
     <use x="244.53125" xlink:href="#ArialMT-6c"/>
     <use x="266.748047" xlink:href="#ArialMT-65"/>
     <use x="322.363281" xlink:href="#ArialMT-73"/>
     <use x="372.363281" xlink:href="#ArialMT-20"/>
     <use x="400.146484" xlink:href="#ArialMT-3d"/>
     <use x="458.544922" xlink:href="#ArialMT-20"/>
     <use x="486.328125" xlink:href="#ArialMT-31"/>
    </g>
    <!-- value = 7.0 -->
    <g style="fill:#262626;" transform="translate(534.397267 293.927975)scale(0.093233 -0.093233)">
     <use xlink:href="#ArialMT-76"/>
     <use x="50" xlink:href="#ArialMT-61"/>
     <use x="105.615234" xlink:href="#ArialMT-6c"/>
     <use x="127.832031" xlink:href="#ArialMT-75"/>
     <use x="183.447266" xlink:href="#ArialMT-65"/>
     <use x="239.0625" xlink:href="#ArialMT-20"/>
     <use x="266.845703" xlink:href="#ArialMT-3d"/>
     <use x="325.244141" xlink:href="#ArialMT-20"/>
     <use x="353.027344" xlink:href="#ArialMT-37"/>
     <use x="408.642578" xlink:href="#ArialMT-2e"/>
     <use x="436.425781" xlink:href="#ArialMT-30"/>
    </g>
   </g>
   <g id="patch_18">
    <path d="M 797.129894 256.952886 
Q 882.647543 193.228444 969.061697 128.835961 
" style="fill:none;stroke:#262626;stroke-linecap:round;"/>
    <path d="M 801.234445 256.219758 
L 797.129894 256.952886 
L 799.006122 253.229368 
" style="fill:none;stroke:#262626;stroke-linecap:round;"/>
   </g>
   <g id="text_9">
    <g id="patch_19">
     <path d="M 689.393867 303.856715 
L 838.606133 303.856715 
L 838.606133 259.314027 
L 689.393867 259.314027 
z
" style="fill:#f9e2d1;stroke:#ffffff;stroke-linejoin:miter;"/>
    </g>
    <!-- knee_intensity_other_lag_3 &lt;= 2.5 -->
    <g style="fill:#262626;" transform="translate(692.470559 269.201104)scale(0.093233 -0.093233)">
     <defs>
      <path d="M 213 1659 
Q 213 2581 725 3025 
Q 1153 3394 1769 3394 
Q 2453 3394 2887 2945 
Q 3322 2497 3322 1706 
Q 3322 1066 3130 698 
Q 2938 331 2570 128 
Q 2203 -75 1769 -75 
Q 1072 -75 642 372 
Q 213 819 213 1659 
z
M 791 1659 
Q 791 1022 1069 705 
Q 1347 388 1769 388 
Q 2188 388 2466 706 
Q 2744 1025 2744 1678 
Q 2744 2294 2464 2611 
Q 2184 2928 1769 2928 
Q 1347 2928 1069 2612 
Q 791 2297 791 1659 
z
" id="ArialMT-6f" transform="scale(0.015625)"/>
      <path d="M 422 0 
L 422 4581 
L 984 4581 
L 984 2938 
Q 1378 3394 1978 3394 
Q 2347 3394 2619 3248 
Q 2891 3103 3008 2847 
Q 3125 2591 3125 2103 
L 3125 0 
L 2563 0 
L 2563 2103 
Q 2563 2525 2380 2717 
Q 2197 2909 1863 2909 
Q 1613 2909 1392 2779 
Q 1172 2650 1078 2428 
Q 984 2206 984 1816 
L 984 0 
L 422 0 
z
" id="ArialMT-68" transform="scale(0.015625)"/>
      <path d="M 416 0 
L 416 3319 
L 922 3319 
L 922 2816 
Q 1116 3169 1280 3281 
Q 1444 3394 1641 3394 
Q 1925 3394 2219 3213 
L 2025 2691 
Q 1819 2813 1613 2813 
Q 1428 2813 1281 2702 
Q 1134 2591 1072 2394 
Q 978 2094 978 1738 
L 978 0 
L 416 0 
z
" id="ArialMT-72" transform="scale(0.015625)"/>
      <path d="M 319 -275 
L 866 -356 
Q 900 -609 1056 -725 
Q 1266 -881 1628 -881 
Q 2019 -881 2231 -725 
Q 2444 -569 2519 -288 
Q 2563 -116 2559 434 
Q 2191 0 1641 0 
Q 956 0 581 494 
Q 206 988 206 1678 
Q 206 2153 378 2554 
Q 550 2956 876 3175 
Q 1203 3394 1644 3394 
Q 2231 3394 2613 2919 
L 2613 3319 
L 3131 3319 
L 3131 450 
Q 3131 -325 2973 -648 
Q 2816 -972 2473 -1159 
Q 2131 -1347 1631 -1347 
Q 1038 -1347 672 -1080 
Q 306 -813 319 -275 
z
M 784 1719 
Q 784 1066 1043 766 
Q 1303 466 1694 466 
Q 2081 466 2343 764 
Q 2606 1063 2606 1700 
Q 2606 2309 2336 2618 
Q 2066 2928 1684 2928 
Q 1309 2928 1046 2623 
Q 784 2319 784 1719 
z
" id="ArialMT-67" transform="scale(0.015625)"/>
     </defs>
     <use xlink:href="#ArialMT-6b"/>
     <use x="50" xlink:href="#ArialMT-6e"/>
     <use x="105.615234" xlink:href="#ArialMT-65"/>
     <use x="161.230469" xlink:href="#ArialMT-65"/>
     <use x="216.845703" xlink:href="#ArialMT-5f"/>
     <use x="272.460938" xlink:href="#ArialMT-69"/>
     <use x="294.677734" xlink:href="#ArialMT-6e"/>
     <use x="350.292969" xlink:href="#ArialMT-74"/>
     <use x="378.076172" xlink:href="#ArialMT-65"/>
     <use x="433.691406" xlink:href="#ArialMT-6e"/>
     <use x="489.306641" xlink:href="#ArialMT-73"/>
     <use x="539.306641" xlink:href="#ArialMT-69"/>
     <use x="561.523438" xlink:href="#ArialMT-74"/>
     <use x="589.306641" xlink:href="#ArialMT-79"/>
     <use x="639.306641" xlink:href="#ArialMT-5f"/>
     <use x="694.921875" xlink:href="#ArialMT-6f"/>
     <use x="750.537109" xlink:href="#ArialMT-74"/>
     <use x="778.320312" xlink:href="#ArialMT-68"/>
     <use x="833.935547" xlink:href="#ArialMT-65"/>
     <use x="889.550781" xlink:href="#ArialMT-72"/>
     <use x="922.851562" xlink:href="#ArialMT-5f"/>
     <use x="978.466797" xlink:href="#ArialMT-6c"/>
     <use x="1000.683594" xlink:href="#ArialMT-61"/>
     <use x="1056.298828" xlink:href="#ArialMT-67"/>
     <use x="1111.914062" xlink:href="#ArialMT-5f"/>
     <use x="1167.529297" xlink:href="#ArialMT-33"/>
     <use x="1223.144531" xlink:href="#ArialMT-20"/>
     <use x="1250.927734" xlink:href="#ArialMT-3c"/>
     <use x="1309.326172" xlink:href="#ArialMT-3d"/>
     <use x="1367.724609" xlink:href="#ArialMT-20"/>
     <use x="1395.507812" xlink:href="#ArialMT-32"/>
     <use x="1451.123047" xlink:href="#ArialMT-2e"/>
     <use x="1478.90625" xlink:href="#ArialMT-35"/>
    </g>
    <!-- mae = 0.575 -->
    <g style="fill:#262626;" transform="translate(737.955193 279.171508)scale(0.093233 -0.093233)">
     <use xlink:href="#ArialMT-6d"/>
     <use x="83.300781" xlink:href="#ArialMT-61"/>
     <use x="138.916016" xlink:href="#ArialMT-65"/>
     <use x="194.53125" xlink:href="#ArialMT-20"/>
     <use x="222.314453" xlink:href="#ArialMT-3d"/>
     <use x="280.712891" xlink:href="#ArialMT-20"/>
     <use x="308.496094" xlink:href="#ArialMT-30"/>
     <use x="364.111328" xlink:href="#ArialMT-2e"/>
     <use x="391.894531" xlink:href="#ArialMT-35"/>
     <use x="447.509766" xlink:href="#ArialMT-37"/>
     <use x="503.125" xlink:href="#ArialMT-35"/>
    </g>
    <!-- samples = 40 -->
    <g style="fill:#262626;" transform="translate(736.14516 289.065869)scale(0.093233 -0.093233)">
     <use xlink:href="#ArialMT-73"/>
     <use x="50" xlink:href="#ArialMT-61"/>
     <use x="105.615234" xlink:href="#ArialMT-6d"/>
     <use x="188.916016" xlink:href="#ArialMT-70"/>
     <use x="244.53125" xlink:href="#ArialMT-6c"/>
     <use x="266.748047" xlink:href="#ArialMT-65"/>
     <use x="322.363281" xlink:href="#ArialMT-73"/>
     <use x="372.363281" xlink:href="#ArialMT-20"/>
     <use x="400.146484" xlink:href="#ArialMT-3d"/>
     <use x="458.544922" xlink:href="#ArialMT-20"/>
     <use x="486.328125" xlink:href="#ArialMT-34"/>
     <use x="541.943359" xlink:href="#ArialMT-30"/>
    </g>
    <!-- value = 2.0 -->
    <g style="fill:#262626;" transform="translate(741.063933 298.927016)scale(0.093233 -0.093233)">
     <use xlink:href="#ArialMT-76"/>
     <use x="50" xlink:href="#ArialMT-61"/>
     <use x="105.615234" xlink:href="#ArialMT-6c"/>
     <use x="127.832031" xlink:href="#ArialMT-75"/>
     <use x="183.447266" xlink:href="#ArialMT-65"/>
     <use x="239.0625" xlink:href="#ArialMT-20"/>
     <use x="266.845703" xlink:href="#ArialMT-3d"/>
     <use x="325.244141" xlink:href="#ArialMT-20"/>
     <use x="353.027344" xlink:href="#ArialMT-32"/>
     <use x="408.642578" xlink:href="#ArialMT-2e"/>
     <use x="436.425781" xlink:href="#ArialMT-30"/>
    </g>
   </g>
   <g id="patch_20">
    <path d="M 1144.222188 256.966856 
Q 1058.695251 193.235493 972.271808 128.83609 
" style="fill:none;stroke:#262626;stroke-linecap:round;"/>
    <path d="M 1142.34596 253.243339 
L 1144.222188 256.966856 
L 1140.117637 256.233729 
" style="fill:none;stroke:#262626;stroke-linecap:round;"/>
   </g>
   <g id="text_10">
    <g id="patch_21">
     <path d="M 1106.097431 303.840108 
L 1248.569236 303.840108 
L 1248.569236 259.330634 
L 1106.097431 259.330634 
z
" style="fill:#fdf5f0;stroke:#ffffff;stroke-linejoin:miter;"/>
    </g>
    <!-- knee_intensity_kite_lag_2 &lt;= 4.0 -->
    <g style="fill:#262626;" transform="translate(1109.174123 269.217711)scale(0.093233 -0.093233)">
     <use xlink:href="#ArialMT-6b"/>
     <use x="50" xlink:href="#ArialMT-6e"/>
     <use x="105.615234" xlink:href="#ArialMT-65"/>
     <use x="161.230469" xlink:href="#ArialMT-65"/>
     <use x="216.845703" xlink:href="#ArialMT-5f"/>
     <use x="272.460938" xlink:href="#ArialMT-69"/>
     <use x="294.677734" xlink:href="#ArialMT-6e"/>
     <use x="350.292969" xlink:href="#ArialMT-74"/>
     <use x="378.076172" xlink:href="#ArialMT-65"/>
     <use x="433.691406" xlink:href="#ArialMT-6e"/>
     <use x="489.306641" xlink:href="#ArialMT-73"/>
     <use x="539.306641" xlink:href="#ArialMT-69"/>
     <use x="561.523438" xlink:href="#ArialMT-74"/>
     <use x="589.306641" xlink:href="#ArialMT-79"/>
     <use x="639.306641" xlink:href="#ArialMT-5f"/>
     <use x="694.921875" xlink:href="#ArialMT-6b"/>
     <use x="744.921875" xlink:href="#ArialMT-69"/>
     <use x="767.138672" xlink:href="#ArialMT-74"/>
     <use x="794.921875" xlink:href="#ArialMT-65"/>
     <use x="850.537109" xlink:href="#ArialMT-5f"/>
     <use x="906.152344" xlink:href="#ArialMT-6c"/>
     <use x="928.369141" xlink:href="#ArialMT-61"/>
     <use x="983.984375" xlink:href="#ArialMT-67"/>
     <use x="1039.599609" xlink:href="#ArialMT-5f"/>
     <use x="1095.214844" xlink:href="#ArialMT-32"/>
     <use x="1150.830078" xlink:href="#ArialMT-20"/>
     <use x="1178.613281" xlink:href="#ArialMT-3c"/>
     <use x="1237.011719" xlink:href="#ArialMT-3d"/>
     <use x="1295.410156" xlink:href="#ArialMT-20"/>
     <use x="1323.193359" xlink:href="#ArialMT-34"/>
     <use x="1378.808594" xlink:href="#ArialMT-2e"/>
     <use x="1406.591797" xlink:href="#ArialMT-30"/>
    </g>
    <!-- mae = 0.714 -->
    <g style="fill:#262626;" transform="translate(1151.288526 279.188116)scale(0.093233 -0.093233)">
     <use xlink:href="#ArialMT-6d"/>
     <use x="83.300781" xlink:href="#ArialMT-61"/>
     <use x="138.916016" xlink:href="#ArialMT-65"/>
     <use x="194.53125" xlink:href="#ArialMT-20"/>
     <use x="222.314453" xlink:href="#ArialMT-3d"/>
     <use x="280.712891" xlink:href="#ArialMT-20"/>
     <use x="308.496094" xlink:href="#ArialMT-30"/>
     <use x="364.111328" xlink:href="#ArialMT-2e"/>
     <use x="391.894531" xlink:href="#ArialMT-37"/>
     <use x="447.509766" xlink:href="#ArialMT-31"/>
     <use x="503.125" xlink:href="#ArialMT-34"/>
    </g>
    <!-- samples = 7 -->
    <g style="fill:#262626;" transform="translate(1152.07081 289.049262)scale(0.093233 -0.093233)">
     <use xlink:href="#ArialMT-73"/>
     <use x="50" xlink:href="#ArialMT-61"/>
     <use x="105.615234" xlink:href="#ArialMT-6d"/>
     <use x="188.916016" xlink:href="#ArialMT-70"/>
     <use x="244.53125" xlink:href="#ArialMT-6c"/>
     <use x="266.748047" xlink:href="#ArialMT-65"/>
     <use x="322.363281" xlink:href="#ArialMT-73"/>
     <use x="372.363281" xlink:href="#ArialMT-20"/>
     <use x="400.146484" xlink:href="#ArialMT-3d"/>
     <use x="458.544922" xlink:href="#ArialMT-20"/>
     <use x="486.328125" xlink:href="#ArialMT-37"/>
    </g>
    <!-- value = 1.0 -->
    <g style="fill:#262626;" transform="translate(1154.397267 298.910409)scale(0.093233 -0.093233)">
     <use xlink:href="#ArialMT-76"/>
     <use x="50" xlink:href="#ArialMT-61"/>
     <use x="105.615234" xlink:href="#ArialMT-6c"/>
     <use x="127.832031" xlink:href="#ArialMT-75"/>
     <use x="183.447266" xlink:href="#ArialMT-65"/>
     <use x="239.0625" xlink:href="#ArialMT-20"/>
     <use x="266.845703" xlink:href="#ArialMT-3d"/>
     <use x="325.244141" xlink:href="#ArialMT-20"/>
     <use x="353.027344" xlink:href="#ArialMT-31"/>
     <use x="408.642578" xlink:href="#ArialMT-2e"/>
     <use x="436.425781" xlink:href="#ArialMT-30"/>
    </g>
   </g>
   <g id="patch_22">
    <path d="M 495.041544 103.173944 
Q 602.349725 39.204422 710.618248 -25.337588 
" style="fill:none;stroke:#262626;stroke-linecap:round;"/>
    <path d="M 499.199667 102.866012 
L 495.041544 103.173944 
L 497.290072 99.662686 
" style="fill:none;stroke:#262626;stroke-linecap:round;"/>
   </g>
   <g id="text_11">
    <g id="patch_23">
     <path d="M 411.01008 149.89969 
L 496.98992 149.89969 
L 496.98992 105.271053 
L 411.01008 105.271053 
z
" style="fill:#fdf5f0;stroke:#ffffff;stroke-linejoin:miter;"/>
    </g>
    <!-- total_fatigue &lt;= 9.0 -->
    <g style="fill:#262626;" transform="translate(414.086772 115.244079)scale(0.093233 -0.093233)">
     <defs>
      <path d="M 556 0 
L 556 2881 
L 59 2881 
L 59 3319 
L 556 3319 
L 556 3672 
Q 556 4006 616 4169 
Q 697 4388 901 4523 
Q 1106 4659 1475 4659 
Q 1713 4659 2000 4603 
L 1916 4113 
Q 1741 4144 1584 4144 
Q 1328 4144 1222 4034 
Q 1116 3925 1116 3625 
L 1116 3319 
L 1763 3319 
L 1763 2881 
L 1116 2881 
L 1116 0 
L 556 0 
z
" id="ArialMT-66" transform="scale(0.015625)"/>
     </defs>
     <use xlink:href="#ArialMT-74"/>
     <use x="27.783203" xlink:href="#ArialMT-6f"/>
     <use x="83.398438" xlink:href="#ArialMT-74"/>
     <use x="111.181641" xlink:href="#ArialMT-61"/>
     <use x="166.796875" xlink:href="#ArialMT-6c"/>
     <use x="189.013672" xlink:href="#ArialMT-5f"/>
     <use x="244.628906" xlink:href="#ArialMT-66"/>
     <use x="272.412109" xlink:href="#ArialMT-61"/>
     <use x="328.027344" xlink:href="#ArialMT-74"/>
     <use x="355.810547" xlink:href="#ArialMT-69"/>
     <use x="378.027344" xlink:href="#ArialMT-67"/>
     <use x="433.642578" xlink:href="#ArialMT-75"/>
     <use x="489.257812" xlink:href="#ArialMT-65"/>
     <use x="544.873047" xlink:href="#ArialMT-20"/>
     <use x="572.65625" xlink:href="#ArialMT-3c"/>
     <use x="631.054688" xlink:href="#ArialMT-3d"/>
     <use x="689.453125" xlink:href="#ArialMT-20"/>
     <use x="717.236328" xlink:href="#ArialMT-39"/>
     <use x="772.851562" xlink:href="#ArialMT-2e"/>
     <use x="800.634766" xlink:href="#ArialMT-30"/>
    </g>
    <!-- mae = 0.747 -->
    <g style="fill:#262626;" transform="translate(427.955193 125.214483)scale(0.093233 -0.093233)">
     <use xlink:href="#ArialMT-6d"/>
     <use x="83.300781" xlink:href="#ArialMT-61"/>
     <use x="138.916016" xlink:href="#ArialMT-65"/>
     <use x="194.53125" xlink:href="#ArialMT-20"/>
     <use x="222.314453" xlink:href="#ArialMT-3d"/>
     <use x="280.712891" xlink:href="#ArialMT-20"/>
     <use x="308.496094" xlink:href="#ArialMT-30"/>
     <use x="364.111328" xlink:href="#ArialMT-2e"/>
     <use x="391.894531" xlink:href="#ArialMT-37"/>
     <use x="447.509766" xlink:href="#ArialMT-34"/>
     <use x="503.125" xlink:href="#ArialMT-37"/>
    </g>
    <!-- samples = 374 -->
    <g style="fill:#262626;" transform="translate(423.552843 135.108844)scale(0.093233 -0.093233)">
     <use xlink:href="#ArialMT-73"/>
     <use x="50" xlink:href="#ArialMT-61"/>
     <use x="105.615234" xlink:href="#ArialMT-6d"/>
     <use x="188.916016" xlink:href="#ArialMT-70"/>
     <use x="244.53125" xlink:href="#ArialMT-6c"/>
     <use x="266.748047" xlink:href="#ArialMT-65"/>
     <use x="322.363281" xlink:href="#ArialMT-73"/>
     <use x="372.363281" xlink:href="#ArialMT-20"/>
     <use x="400.146484" xlink:href="#ArialMT-3d"/>
     <use x="458.544922" xlink:href="#ArialMT-20"/>
     <use x="486.328125" xlink:href="#ArialMT-33"/>
     <use x="541.943359" xlink:href="#ArialMT-37"/>
     <use x="597.558594" xlink:href="#ArialMT-34"/>
    </g>
    <!-- value = 1.0 -->
    <g style="fill:#262626;" transform="translate(431.063933 144.969991)scale(0.093233 -0.093233)">
     <use xlink:href="#ArialMT-76"/>
     <use x="50" xlink:href="#ArialMT-61"/>
     <use x="105.615234" xlink:href="#ArialMT-6c"/>
     <use x="127.832031" xlink:href="#ArialMT-75"/>
     <use x="183.447266" xlink:href="#ArialMT-65"/>
     <use x="239.0625" xlink:href="#ArialMT-20"/>
     <use x="266.845703" xlink:href="#ArialMT-3d"/>
     <use x="325.244141" xlink:href="#ArialMT-20"/>
     <use x="353.027344" xlink:href="#ArialMT-31"/>
     <use x="408.642578" xlink:href="#ArialMT-2e"/>
     <use x="436.425781" xlink:href="#ArialMT-30"/>
    </g>
   </g>
   <g id="patch_24">
    <path d="M 929.656412 103.192597 
Q 822.33271 39.213822 714.048665 -25.337441 
" style="fill:none;stroke:#262626;stroke-linecap:round;"/>
    <path d="M 927.407884 99.681338 
L 929.656412 103.192597 
L 925.498288 102.884664 
" style="fill:none;stroke:#262626;stroke-linecap:round;"/>
   </g>
   <g id="text_12">
    <g id="patch_25">
     <path d="M 927.676747 149.883083 
L 1013.656587 149.883083 
L 1013.656587 105.28766 
L 927.676747 105.28766 
z
" style="fill:#f9e2d1;stroke:#ffffff;stroke-linejoin:miter;"/>
    </g>
    <!-- total_fatigue &lt;= 3.5 -->
    <g style="fill:#262626;" transform="translate(930.753438 115.260686)scale(0.093233 -0.093233)">
     <use xlink:href="#ArialMT-74"/>
     <use x="27.783203" xlink:href="#ArialMT-6f"/>
     <use x="83.398438" xlink:href="#ArialMT-74"/>
     <use x="111.181641" xlink:href="#ArialMT-61"/>
     <use x="166.796875" xlink:href="#ArialMT-6c"/>
     <use x="189.013672" xlink:href="#ArialMT-5f"/>
     <use x="244.628906" xlink:href="#ArialMT-66"/>
     <use x="272.412109" xlink:href="#ArialMT-61"/>
     <use x="328.027344" xlink:href="#ArialMT-74"/>
     <use x="355.810547" xlink:href="#ArialMT-69"/>
     <use x="378.027344" xlink:href="#ArialMT-67"/>
     <use x="433.642578" xlink:href="#ArialMT-75"/>
     <use x="489.257812" xlink:href="#ArialMT-65"/>
     <use x="544.873047" xlink:href="#ArialMT-20"/>
     <use x="572.65625" xlink:href="#ArialMT-3c"/>
     <use x="631.054688" xlink:href="#ArialMT-3d"/>
     <use x="689.453125" xlink:href="#ArialMT-20"/>
     <use x="717.236328" xlink:href="#ArialMT-33"/>
     <use x="772.851562" xlink:href="#ArialMT-2e"/>
     <use x="800.634766" xlink:href="#ArialMT-35"/>
    </g>
    <!-- mae = 0.702 -->
    <g style="fill:#262626;" transform="translate(944.621859 125.23109)scale(0.093233 -0.093233)">
     <use xlink:href="#ArialMT-6d"/>
     <use x="83.300781" xlink:href="#ArialMT-61"/>
     <use x="138.916016" xlink:href="#ArialMT-65"/>
     <use x="194.53125" xlink:href="#ArialMT-20"/>
     <use x="222.314453" xlink:href="#ArialMT-3d"/>
     <use x="280.712891" xlink:href="#ArialMT-20"/>
     <use x="308.496094" xlink:href="#ArialMT-30"/>
     <use x="364.111328" xlink:href="#ArialMT-2e"/>
     <use x="391.894531" xlink:href="#ArialMT-37"/>
     <use x="447.509766" xlink:href="#ArialMT-30"/>
     <use x="503.125" xlink:href="#ArialMT-32"/>
    </g>
    <!-- samples = 47 -->
    <g style="fill:#262626;" transform="translate(942.811826 135.092237)scale(0.093233 -0.093233)">
     <use xlink:href="#ArialMT-73"/>
     <use x="50" xlink:href="#ArialMT-61"/>
     <use x="105.615234" xlink:href="#ArialMT-6d"/>
     <use x="188.916016" xlink:href="#ArialMT-70"/>
     <use x="244.53125" xlink:href="#ArialMT-6c"/>
     <use x="266.748047" xlink:href="#ArialMT-65"/>
     <use x="322.363281" xlink:href="#ArialMT-73"/>
     <use x="372.363281" xlink:href="#ArialMT-20"/>
     <use x="400.146484" xlink:href="#ArialMT-3d"/>
     <use x="458.544922" xlink:href="#ArialMT-20"/>
     <use x="486.328125" xlink:href="#ArialMT-34"/>
     <use x="541.943359" xlink:href="#ArialMT-37"/>
    </g>
    <!-- value = 2.0 -->
    <g style="fill:#262626;" transform="translate(947.7306 144.953383)scale(0.093233 -0.093233)">
     <use xlink:href="#ArialMT-76"/>
     <use x="50" xlink:href="#ArialMT-61"/>
     <use x="105.615234" xlink:href="#ArialMT-6c"/>
     <use x="127.832031" xlink:href="#ArialMT-75"/>
     <use x="183.447266" xlink:href="#ArialMT-65"/>
     <use x="239.0625" xlink:href="#ArialMT-20"/>
     <use x="266.845703" xlink:href="#ArialMT-3d"/>
     <use x="325.244141" xlink:href="#ArialMT-20"/>
     <use x="353.027344" xlink:href="#ArialMT-32"/>
     <use x="408.642578" xlink:href="#ArialMT-2e"/>
     <use x="436.425781" xlink:href="#ArialMT-30"/>
    </g>
   </g>
   <g id="patch_26">
    <path d="M 712.333333 -26.36 
Q 712.333333 -26.36 712.333333 -26.36 
" style="fill:none;stroke:#262626;stroke-linecap:round;"/>
   </g>
   <g id="text_13">
    <g id="patch_27">
     <path d="M 656.134908 -4.10031 
L 768.531759 -4.10031 
L 768.531759 -48.728947 
L 656.134908 -48.728947 
z
" style="fill:#fdf5f0;stroke:#ffffff;stroke-linejoin:miter;"/>
    </g>
    <!-- knee_intensity_CF &lt;= 5.5 -->
    <g style="fill:#262626;" transform="translate(659.211599 -38.755921)scale(0.093233 -0.093233)">
     <defs>
      <path d="M 3763 1606 
L 4369 1453 
Q 4178 706 3683 314 
Q 3188 -78 2472 -78 
Q 1731 -78 1267 223 
Q 803 525 561 1097 
Q 319 1669 319 2325 
Q 319 3041 592 3573 
Q 866 4106 1370 4382 
Q 1875 4659 2481 4659 
Q 3169 4659 3637 4309 
Q 4106 3959 4291 3325 
L 3694 3184 
Q 3534 3684 3231 3912 
Q 2928 4141 2469 4141 
Q 1941 4141 1586 3887 
Q 1231 3634 1087 3207 
Q 944 2781 944 2328 
Q 944 1744 1114 1308 
Q 1284 872 1643 656 
Q 2003 441 2422 441 
Q 2931 441 3284 734 
Q 3638 1028 3763 1606 
z
" id="ArialMT-43" transform="scale(0.015625)"/>
      <path d="M 525 0 
L 525 4581 
L 3616 4581 
L 3616 4041 
L 1131 4041 
L 1131 2622 
L 3281 2622 
L 3281 2081 
L 1131 2081 
L 1131 0 
L 525 0 
z
" id="ArialMT-46" transform="scale(0.015625)"/>
     </defs>
     <use xlink:href="#ArialMT-6b"/>
     <use x="50" xlink:href="#ArialMT-6e"/>
     <use x="105.615234" xlink:href="#ArialMT-65"/>
     <use x="161.230469" xlink:href="#ArialMT-65"/>
     <use x="216.845703" xlink:href="#ArialMT-5f"/>
     <use x="272.460938" xlink:href="#ArialMT-69"/>
     <use x="294.677734" xlink:href="#ArialMT-6e"/>
     <use x="350.292969" xlink:href="#ArialMT-74"/>
     <use x="378.076172" xlink:href="#ArialMT-65"/>
     <use x="433.691406" xlink:href="#ArialMT-6e"/>
     <use x="489.306641" xlink:href="#ArialMT-73"/>
     <use x="539.306641" xlink:href="#ArialMT-69"/>
     <use x="561.523438" xlink:href="#ArialMT-74"/>
     <use x="589.306641" xlink:href="#ArialMT-79"/>
     <use x="639.306641" xlink:href="#ArialMT-5f"/>
     <use x="694.921875" xlink:href="#ArialMT-43"/>
     <use x="767.138672" xlink:href="#ArialMT-46"/>
     <use x="828.222656" xlink:href="#ArialMT-20"/>
     <use x="856.005859" xlink:href="#ArialMT-3c"/>
     <use x="914.404297" xlink:href="#ArialMT-3d"/>
     <use x="972.802734" xlink:href="#ArialMT-20"/>
     <use x="1000.585938" xlink:href="#ArialMT-35"/>
     <use x="1056.201172" xlink:href="#ArialMT-2e"/>
     <use x="1083.984375" xlink:href="#ArialMT-35"/>
    </g>
    <!-- mae = 0.768 -->
    <g style="fill:#262626;" transform="translate(686.288526 -28.785517)scale(0.093233 -0.093233)">
     <use xlink:href="#ArialMT-6d"/>
     <use x="83.300781" xlink:href="#ArialMT-61"/>
     <use x="138.916016" xlink:href="#ArialMT-65"/>
     <use x="194.53125" xlink:href="#ArialMT-20"/>
     <use x="222.314453" xlink:href="#ArialMT-3d"/>
     <use x="280.712891" xlink:href="#ArialMT-20"/>
     <use x="308.496094" xlink:href="#ArialMT-30"/>
     <use x="364.111328" xlink:href="#ArialMT-2e"/>
     <use x="391.894531" xlink:href="#ArialMT-37"/>
     <use x="447.509766" xlink:href="#ArialMT-36"/>
     <use x="503.125" xlink:href="#ArialMT-38"/>
    </g>
    <!-- samples = 421 -->
    <g style="fill:#262626;" transform="translate(681.886176 -18.891156)scale(0.093233 -0.093233)">
     <use xlink:href="#ArialMT-73"/>
     <use x="50" xlink:href="#ArialMT-61"/>
     <use x="105.615234" xlink:href="#ArialMT-6d"/>
     <use x="188.916016" xlink:href="#ArialMT-70"/>
     <use x="244.53125" xlink:href="#ArialMT-6c"/>
     <use x="266.748047" xlink:href="#ArialMT-65"/>
     <use x="322.363281" xlink:href="#ArialMT-73"/>
     <use x="372.363281" xlink:href="#ArialMT-20"/>
     <use x="400.146484" xlink:href="#ArialMT-3d"/>
     <use x="458.544922" xlink:href="#ArialMT-20"/>
     <use x="486.328125" xlink:href="#ArialMT-34"/>
     <use x="541.943359" xlink:href="#ArialMT-32"/>
     <use x="597.558594" xlink:href="#ArialMT-31"/>
    </g>
    <!-- value = 1.0 -->
    <g style="fill:#262626;" transform="translate(689.397267 -9.030009)scale(0.093233 -0.093233)">
     <use xlink:href="#ArialMT-76"/>
     <use x="50" xlink:href="#ArialMT-61"/>
     <use x="105.615234" xlink:href="#ArialMT-6c"/>
     <use x="127.832031" xlink:href="#ArialMT-75"/>
     <use x="183.447266" xlink:href="#ArialMT-65"/>
     <use x="239.0625" xlink:href="#ArialMT-20"/>
     <use x="266.845703" xlink:href="#ArialMT-3d"/>
     <use x="325.244141" xlink:href="#ArialMT-20"/>
     <use x="353.027344" xlink:href="#ArialMT-31"/>
     <use x="408.642578" xlink:href="#ArialMT-2e"/>
     <use x="436.425781" xlink:href="#ArialMT-30"/>
    </g>
   </g>
  </g>
 </g>
</svg>
