<?xml version="1.0" encoding="utf-8" standalone="no"?>
<!DOCTYPE svg PUBLIC "-//W3C//DTD SVG 1.1//EN"
  "http://www.w3.org/Graphics/SVG/1.1/DTD/svg11.dtd">
<svg height="576pt" version="1.1" viewBox="0 0 1152 576" width="1152pt" xmlns="http://www.w3.org/2000/svg" xmlns:xlink="http://www.w3.org/1999/xlink">
 <metadata>
  <rdf:RDF xmlns:cc="http://creativecommons.org/ns#" xmlns:dc="http://purl.org/dc/elements/1.1/" xmlns:rdf="http://www.w3.org/1999/02/22-rdf-syntax-ns#">
   <cc:Work>
    <dc:type rdf:resource="http://purl.org/dc/dcmitype/StillImage"/>
    <dc:date>2022-01-27T20:41:56.730040</dc:date>
    <dc:format>image/svg+xml</dc:format>
    <dc:creator>
     <cc:Agent>
      <dc:title>Matplotlib v3.4.1, https://matplotlib.org/</dc:title>
     </cc:Agent>
    </dc:creator>
   </cc:Work>
  </rdf:RDF>
 </metadata>
 <defs>
  <style type="text/css">*{stroke-linecap:butt;stroke-linejoin:round;}</style>
 </defs>
 <g id="figure_1">
  <g id="patch_1">
   <path d="M 0 576 
L 1152 576 
L 1152 0 
L 0 0 
z
" style="fill:#ffffff;"/>
  </g>
  <g id="axes_1">
   <g id="patch_2">
    <path d="M 251.181436 416.593842 
Q 292.155646 350.440321 333.718566 283.336316 
" style="fill:none;stroke:#262626;stroke-linecap:round;"/>
    <path d="M 254.457372 414.573609 
L 251.181436 416.593842 
L 251.530811 412.760954 
" style="fill:none;stroke:#262626;stroke-linecap:round;"/>
   </g>
   <g id="text_1">
    <g id="patch_3">
     <path d="M 208.439524 451.533237 
L 270.329706 451.533237 
L 270.329706 419.746763 
L 208.439524 419.746763 
z
" style="fill:#f6d5bd;stroke:#ffffff;stroke-linejoin:miter;"/>
    </g>
    <!-- mae = 0.607 -->
    <g style="fill:#262626;" transform="translate(215.343255 428.746893)scale(0.086061 -0.086061)">
     <defs>
      <path d="M 422 0 
L 422 3319 
L 925 3319 
L 925 2853 
Q 1081 3097 1340 3245 
Q 1600 3394 1931 3394 
Q 2300 3394 2536 3241 
Q 2772 3088 2869 2813 
Q 3263 3394 3894 3394 
Q 4388 3394 4653 3120 
Q 4919 2847 4919 2278 
L 4919 0 
L 4359 0 
L 4359 2091 
Q 4359 2428 4304 2576 
Q 4250 2725 4106 2815 
Q 3963 2906 3769 2906 
Q 3419 2906 3187 2673 
Q 2956 2441 2956 1928 
L 2956 0 
L 2394 0 
L 2394 2156 
Q 2394 2531 2256 2718 
Q 2119 2906 1806 2906 
Q 1569 2906 1367 2781 
Q 1166 2656 1075 2415 
Q 984 2175 984 1722 
L 984 0 
L 422 0 
z
" id="ArialMT-6d" transform="scale(0.015625)"/>
      <path d="M 2588 409 
Q 2275 144 1986 34 
Q 1697 -75 1366 -75 
Q 819 -75 525 192 
Q 231 459 231 875 
Q 231 1119 342 1320 
Q 453 1522 633 1644 
Q 813 1766 1038 1828 
Q 1203 1872 1538 1913 
Q 2219 1994 2541 2106 
Q 2544 2222 2544 2253 
Q 2544 2597 2384 2738 
Q 2169 2928 1744 2928 
Q 1347 2928 1158 2789 
Q 969 2650 878 2297 
L 328 2372 
Q 403 2725 575 2942 
Q 747 3159 1072 3276 
Q 1397 3394 1825 3394 
Q 2250 3394 2515 3294 
Q 2781 3194 2906 3042 
Q 3031 2891 3081 2659 
Q 3109 2516 3109 2141 
L 3109 1391 
Q 3109 606 3145 398 
Q 3181 191 3288 0 
L 2700 0 
Q 2613 175 2588 409 
z
M 2541 1666 
Q 2234 1541 1622 1453 
Q 1275 1403 1131 1340 
Q 988 1278 909 1158 
Q 831 1038 831 891 
Q 831 666 1001 516 
Q 1172 366 1500 366 
Q 1825 366 2078 508 
Q 2331 650 2450 897 
Q 2541 1088 2541 1459 
L 2541 1666 
z
" id="ArialMT-61" transform="scale(0.015625)"/>
      <path d="M 2694 1069 
L 3275 997 
Q 3138 488 2766 206 
Q 2394 -75 1816 -75 
Q 1088 -75 661 373 
Q 234 822 234 1631 
Q 234 2469 665 2931 
Q 1097 3394 1784 3394 
Q 2450 3394 2872 2941 
Q 3294 2488 3294 1666 
Q 3294 1616 3291 1516 
L 816 1516 
Q 847 969 1125 678 
Q 1403 388 1819 388 
Q 2128 388 2347 550 
Q 2566 713 2694 1069 
z
M 847 1978 
L 2700 1978 
Q 2663 2397 2488 2606 
Q 2219 2931 1791 2931 
Q 1403 2931 1139 2672 
Q 875 2413 847 1978 
z
" id="ArialMT-65" transform="scale(0.015625)"/>
      <path id="ArialMT-20" transform="scale(0.015625)"/>
      <path d="M 3381 2694 
L 356 2694 
L 356 3219 
L 3381 3219 
L 3381 2694 
z
M 3381 1303 
L 356 1303 
L 356 1828 
L 3381 1828 
L 3381 1303 
z
" id="ArialMT-3d" transform="scale(0.015625)"/>
      <path d="M 266 2259 
Q 266 3072 433 3567 
Q 600 4063 929 4331 
Q 1259 4600 1759 4600 
Q 2128 4600 2406 4451 
Q 2684 4303 2865 4023 
Q 3047 3744 3150 3342 
Q 3253 2941 3253 2259 
Q 3253 1453 3087 958 
Q 2922 463 2592 192 
Q 2263 -78 1759 -78 
Q 1097 -78 719 397 
Q 266 969 266 2259 
z
M 844 2259 
Q 844 1131 1108 757 
Q 1372 384 1759 384 
Q 2147 384 2411 759 
Q 2675 1134 2675 2259 
Q 2675 3391 2411 3762 
Q 2147 4134 1753 4134 
Q 1366 4134 1134 3806 
Q 844 3388 844 2259 
z
" id="ArialMT-30" transform="scale(0.015625)"/>
      <path d="M 581 0 
L 581 641 
L 1222 641 
L 1222 0 
L 581 0 
z
" id="ArialMT-2e" transform="scale(0.015625)"/>
      <path d="M 3184 3459 
L 2625 3416 
Q 2550 3747 2413 3897 
Q 2184 4138 1850 4138 
Q 1581 4138 1378 3988 
Q 1113 3794 959 3422 
Q 806 3050 800 2363 
Q 1003 2672 1297 2822 
Q 1591 2972 1913 2972 
Q 2475 2972 2870 2558 
Q 3266 2144 3266 1488 
Q 3266 1056 3080 686 
Q 2894 316 2569 119 
Q 2244 -78 1831 -78 
Q 1128 -78 684 439 
Q 241 956 241 2144 
Q 241 3472 731 4075 
Q 1159 4600 1884 4600 
Q 2425 4600 2770 4297 
Q 3116 3994 3184 3459 
z
M 888 1484 
Q 888 1194 1011 928 
Q 1134 663 1356 523 
Q 1578 384 1822 384 
Q 2178 384 2434 671 
Q 2691 959 2691 1453 
Q 2691 1928 2437 2201 
Q 2184 2475 1800 2475 
Q 1419 2475 1153 2201 
Q 888 1928 888 1484 
z
" id="ArialMT-36" transform="scale(0.015625)"/>
      <path d="M 303 3981 
L 303 4522 
L 3269 4522 
L 3269 4084 
Q 2831 3619 2401 2847 
Q 1972 2075 1738 1259 
Q 1569 684 1522 0 
L 944 0 
Q 953 541 1156 1306 
Q 1359 2072 1739 2783 
Q 2119 3494 2547 3981 
L 303 3981 
z
" id="ArialMT-37" transform="scale(0.015625)"/>
     </defs>
     <use xlink:href="#ArialMT-6d"/>
     <use x="83.300781" xlink:href="#ArialMT-61"/>
     <use x="138.916016" xlink:href="#ArialMT-65"/>
     <use x="194.53125" xlink:href="#ArialMT-20"/>
     <use x="222.314453" xlink:href="#ArialMT-3d"/>
     <use x="280.712891" xlink:href="#ArialMT-20"/>
     <use x="308.496094" xlink:href="#ArialMT-30"/>
     <use x="364.111328" xlink:href="#ArialMT-2e"/>
     <use x="391.894531" xlink:href="#ArialMT-36"/>
     <use x="447.509766" xlink:href="#ArialMT-30"/>
     <use x="503.125" xlink:href="#ArialMT-37"/>
    </g>
    <!-- samples = 205 -->
    <g style="fill:#262626;" transform="translate(211.279547 437.880149)scale(0.086061 -0.086061)">
     <defs>
      <path d="M 197 991 
L 753 1078 
Q 800 744 1014 566 
Q 1228 388 1613 388 
Q 2000 388 2187 545 
Q 2375 703 2375 916 
Q 2375 1106 2209 1216 
Q 2094 1291 1634 1406 
Q 1016 1563 777 1677 
Q 538 1791 414 1992 
Q 291 2194 291 2438 
Q 291 2659 392 2848 
Q 494 3038 669 3163 
Q 800 3259 1026 3326 
Q 1253 3394 1513 3394 
Q 1903 3394 2198 3281 
Q 2494 3169 2634 2976 
Q 2775 2784 2828 2463 
L 2278 2388 
Q 2241 2644 2061 2787 
Q 1881 2931 1553 2931 
Q 1166 2931 1000 2803 
Q 834 2675 834 2503 
Q 834 2394 903 2306 
Q 972 2216 1119 2156 
Q 1203 2125 1616 2013 
Q 2213 1853 2448 1751 
Q 2684 1650 2818 1456 
Q 2953 1263 2953 975 
Q 2953 694 2789 445 
Q 2625 197 2315 61 
Q 2006 -75 1616 -75 
Q 969 -75 630 194 
Q 291 463 197 991 
z
" id="ArialMT-73" transform="scale(0.015625)"/>
      <path d="M 422 -1272 
L 422 3319 
L 934 3319 
L 934 2888 
Q 1116 3141 1344 3267 
Q 1572 3394 1897 3394 
Q 2322 3394 2647 3175 
Q 2972 2956 3137 2557 
Q 3303 2159 3303 1684 
Q 3303 1175 3120 767 
Q 2938 359 2589 142 
Q 2241 -75 1856 -75 
Q 1575 -75 1351 44 
Q 1128 163 984 344 
L 984 -1272 
L 422 -1272 
z
M 931 1641 
Q 931 1000 1190 694 
Q 1450 388 1819 388 
Q 2194 388 2461 705 
Q 2728 1022 2728 1688 
Q 2728 2322 2467 2637 
Q 2206 2953 1844 2953 
Q 1484 2953 1207 2617 
Q 931 2281 931 1641 
z
" id="ArialMT-70" transform="scale(0.015625)"/>
      <path d="M 409 0 
L 409 4581 
L 972 4581 
L 972 0 
L 409 0 
z
" id="ArialMT-6c" transform="scale(0.015625)"/>
      <path d="M 3222 541 
L 3222 0 
L 194 0 
Q 188 203 259 391 
Q 375 700 629 1000 
Q 884 1300 1366 1694 
Q 2113 2306 2375 2664 
Q 2638 3022 2638 3341 
Q 2638 3675 2398 3904 
Q 2159 4134 1775 4134 
Q 1369 4134 1125 3890 
Q 881 3647 878 3216 
L 300 3275 
Q 359 3922 746 4261 
Q 1134 4600 1788 4600 
Q 2447 4600 2831 4234 
Q 3216 3869 3216 3328 
Q 3216 3053 3103 2787 
Q 2991 2522 2730 2228 
Q 2469 1934 1863 1422 
Q 1356 997 1212 845 
Q 1069 694 975 541 
L 3222 541 
z
" id="ArialMT-32" transform="scale(0.015625)"/>
      <path d="M 266 1200 
L 856 1250 
Q 922 819 1161 601 
Q 1400 384 1738 384 
Q 2144 384 2425 690 
Q 2706 997 2706 1503 
Q 2706 1984 2436 2262 
Q 2166 2541 1728 2541 
Q 1456 2541 1237 2417 
Q 1019 2294 894 2097 
L 366 2166 
L 809 4519 
L 3088 4519 
L 3088 3981 
L 1259 3981 
L 1013 2750 
Q 1425 3038 1878 3038 
Q 2478 3038 2890 2622 
Q 3303 2206 3303 1553 
Q 3303 931 2941 478 
Q 2500 -78 1738 -78 
Q 1113 -78 717 272 
Q 322 622 266 1200 
z
" id="ArialMT-35" transform="scale(0.015625)"/>
     </defs>
     <use xlink:href="#ArialMT-73"/>
     <use x="50" xlink:href="#ArialMT-61"/>
     <use x="105.615234" xlink:href="#ArialMT-6d"/>
     <use x="188.916016" xlink:href="#ArialMT-70"/>
     <use x="244.53125" xlink:href="#ArialMT-6c"/>
     <use x="266.748047" xlink:href="#ArialMT-65"/>
     <use x="322.363281" xlink:href="#ArialMT-73"/>
     <use x="372.363281" xlink:href="#ArialMT-20"/>
     <use x="400.146484" xlink:href="#ArialMT-3d"/>
     <use x="458.544922" xlink:href="#ArialMT-20"/>
     <use x="486.328125" xlink:href="#ArialMT-32"/>
     <use x="541.943359" xlink:href="#ArialMT-30"/>
     <use x="597.558594" xlink:href="#ArialMT-35"/>
    </g>
    <!-- value = 0.0 -->
    <g style="fill:#262626;" transform="translate(218.212861 446.982746)scale(0.086061 -0.086061)">
     <defs>
      <path d="M 1344 0 
L 81 3319 
L 675 3319 
L 1388 1331 
Q 1503 1009 1600 663 
Q 1675 925 1809 1294 
L 2547 3319 
L 3125 3319 
L 1869 0 
L 1344 0 
z
" id="ArialMT-76" transform="scale(0.015625)"/>
      <path d="M 2597 0 
L 2597 488 
Q 2209 -75 1544 -75 
Q 1250 -75 995 37 
Q 741 150 617 320 
Q 494 491 444 738 
Q 409 903 409 1263 
L 409 3319 
L 972 3319 
L 972 1478 
Q 972 1038 1006 884 
Q 1059 663 1231 536 
Q 1403 409 1656 409 
Q 1909 409 2131 539 
Q 2353 669 2445 892 
Q 2538 1116 2538 1541 
L 2538 3319 
L 3100 3319 
L 3100 0 
L 2597 0 
z
" id="ArialMT-75" transform="scale(0.015625)"/>
     </defs>
     <use xlink:href="#ArialMT-76"/>
     <use x="50" xlink:href="#ArialMT-61"/>
     <use x="105.615234" xlink:href="#ArialMT-6c"/>
     <use x="127.832031" xlink:href="#ArialMT-75"/>
     <use x="183.447266" xlink:href="#ArialMT-65"/>
     <use x="239.0625" xlink:href="#ArialMT-20"/>
     <use x="266.845703" xlink:href="#ArialMT-3d"/>
     <use x="325.244141" xlink:href="#ArialMT-20"/>
     <use x="353.027344" xlink:href="#ArialMT-30"/>
     <use x="408.642578" xlink:href="#ArialMT-2e"/>
     <use x="436.425781" xlink:href="#ArialMT-30"/>
    </g>
   </g>
   <g id="patch_4">
    <path d="M 418.368525 416.612409 
Q 377.388638 350.44972 335.820039 283.336547 
" style="fill:none;stroke:#262626;stroke-linecap:round;"/>
    <path d="M 418.01915 412.77952 
L 418.368525 416.612409 
L 415.092589 414.592175 
" style="fill:none;stroke:#262626;stroke-linecap:round;"/>
   </g>
   <g id="text_2">
    <g id="patch_5">
     <path d="M 403.994571 451.517908 
L 456.313122 451.517908 
L 456.313122 419.762092 
L 403.994571 419.762092 
z
" style="fill:#eeab7b;stroke:#ffffff;stroke-linejoin:miter;"/>
    </g>
    <!-- mae = 0.5 -->
    <g style="fill:#262626;" transform="translate(410.898301 428.762222)scale(0.086061 -0.086061)">
     <use xlink:href="#ArialMT-6d"/>
     <use x="83.300781" xlink:href="#ArialMT-61"/>
     <use x="138.916016" xlink:href="#ArialMT-65"/>
     <use x="194.53125" xlink:href="#ArialMT-20"/>
     <use x="222.314453" xlink:href="#ArialMT-3d"/>
     <use x="280.712891" xlink:href="#ArialMT-20"/>
     <use x="308.496094" xlink:href="#ArialMT-30"/>
     <use x="364.111328" xlink:href="#ArialMT-2e"/>
     <use x="391.894531" xlink:href="#ArialMT-35"/>
    </g>
    <!-- samples = 4 -->
    <g style="fill:#262626;" transform="translate(406.834594 437.864819)scale(0.086061 -0.086061)">
     <defs>
      <path d="M 2069 0 
L 2069 1097 
L 81 1097 
L 81 1613 
L 2172 4581 
L 2631 4581 
L 2631 1613 
L 3250 1613 
L 3250 1097 
L 2631 1097 
L 2631 0 
L 2069 0 
z
M 2069 1613 
L 2069 3678 
L 634 1613 
L 2069 1613 
z
" id="ArialMT-34" transform="scale(0.015625)"/>
     </defs>
     <use xlink:href="#ArialMT-73"/>
     <use x="50" xlink:href="#ArialMT-61"/>
     <use x="105.615234" xlink:href="#ArialMT-6d"/>
     <use x="188.916016" xlink:href="#ArialMT-70"/>
     <use x="244.53125" xlink:href="#ArialMT-6c"/>
     <use x="266.748047" xlink:href="#ArialMT-65"/>
     <use x="322.363281" xlink:href="#ArialMT-73"/>
     <use x="372.363281" xlink:href="#ArialMT-20"/>
     <use x="400.146484" xlink:href="#ArialMT-3d"/>
     <use x="458.544922" xlink:href="#ArialMT-20"/>
     <use x="486.328125" xlink:href="#ArialMT-34"/>
    </g>
    <!-- value = 1.0 -->
    <g style="fill:#262626;" transform="translate(408.982092 446.967416)scale(0.086061 -0.086061)">
     <defs>
      <path d="M 2384 0 
L 1822 0 
L 1822 3584 
Q 1619 3391 1289 3197 
Q 959 3003 697 2906 
L 697 3450 
Q 1169 3672 1522 3987 
Q 1875 4303 2022 4600 
L 2384 4600 
L 2384 0 
z
" id="ArialMT-31" transform="scale(0.015625)"/>
     </defs>
     <use xlink:href="#ArialMT-76"/>
     <use x="50" xlink:href="#ArialMT-61"/>
     <use x="105.615234" xlink:href="#ArialMT-6c"/>
     <use x="127.832031" xlink:href="#ArialMT-75"/>
     <use x="183.447266" xlink:href="#ArialMT-65"/>
     <use x="239.0625" xlink:href="#ArialMT-20"/>
     <use x="266.845703" xlink:href="#ArialMT-3d"/>
     <use x="325.244141" xlink:href="#ArialMT-20"/>
     <use x="353.027344" xlink:href="#ArialMT-31"/>
     <use x="408.642578" xlink:href="#ArialMT-2e"/>
     <use x="436.425781" xlink:href="#ArialMT-30"/>
    </g>
   </g>
   <g id="patch_6">
    <path d="M 632.719898 416.593842 
Q 673.694107 350.440321 715.257027 283.336316 
" style="fill:none;stroke:#262626;stroke-linecap:round;"/>
    <path d="M 635.995834 414.573609 
L 632.719898 416.593842 
L 633.069273 412.760954 
" style="fill:none;stroke:#262626;stroke-linecap:round;"/>
   </g>
   <g id="text_3">
    <g id="patch_7">
     <path d="M 592.370894 451.533237 
L 649.47526 451.533237 
L 649.47526 419.746763 
L 592.370894 419.746763 
z
" style="fill:#ffffff;stroke:#ffffff;stroke-linejoin:miter;"/>
    </g>
    <!-- mae = 0.6 -->
    <g style="fill:#262626;" transform="translate(601.667532 428.746893)scale(0.086061 -0.086061)">
     <use xlink:href="#ArialMT-6d"/>
     <use x="83.300781" xlink:href="#ArialMT-61"/>
     <use x="138.916016" xlink:href="#ArialMT-65"/>
     <use x="194.53125" xlink:href="#ArialMT-20"/>
     <use x="222.314453" xlink:href="#ArialMT-3d"/>
     <use x="280.712891" xlink:href="#ArialMT-20"/>
     <use x="308.496094" xlink:href="#ArialMT-30"/>
     <use x="364.111328" xlink:href="#ArialMT-2e"/>
     <use x="391.894531" xlink:href="#ArialMT-36"/>
    </g>
    <!-- samples = 25 -->
    <g style="fill:#262626;" transform="translate(595.210917 437.880149)scale(0.086061 -0.086061)">
     <use xlink:href="#ArialMT-73"/>
     <use x="50" xlink:href="#ArialMT-61"/>
     <use x="105.615234" xlink:href="#ArialMT-6d"/>
     <use x="188.916016" xlink:href="#ArialMT-70"/>
     <use x="244.53125" xlink:href="#ArialMT-6c"/>
     <use x="266.748047" xlink:href="#ArialMT-65"/>
     <use x="322.363281" xlink:href="#ArialMT-73"/>
     <use x="372.363281" xlink:href="#ArialMT-20"/>
     <use x="400.146484" xlink:href="#ArialMT-3d"/>
     <use x="458.544922" xlink:href="#ArialMT-20"/>
     <use x="486.328125" xlink:href="#ArialMT-32"/>
     <use x="541.943359" xlink:href="#ArialMT-35"/>
    </g>
    <!-- value = -1.0 -->
    <g style="fill:#262626;" transform="translate(598.318537 446.982746)scale(0.086061 -0.086061)">
     <defs>
      <path d="M 203 1375 
L 203 1941 
L 1931 1941 
L 1931 1375 
L 203 1375 
z
" id="ArialMT-2d" transform="scale(0.015625)"/>
     </defs>
     <use xlink:href="#ArialMT-76"/>
     <use x="50" xlink:href="#ArialMT-61"/>
     <use x="105.615234" xlink:href="#ArialMT-6c"/>
     <use x="127.832031" xlink:href="#ArialMT-75"/>
     <use x="183.447266" xlink:href="#ArialMT-65"/>
     <use x="239.0625" xlink:href="#ArialMT-20"/>
     <use x="266.845703" xlink:href="#ArialMT-3d"/>
     <use x="325.244141" xlink:href="#ArialMT-20"/>
     <use x="353.027344" xlink:href="#ArialMT-2d"/>
     <use x="386.328125" xlink:href="#ArialMT-31"/>
     <use x="441.943359" xlink:href="#ArialMT-2e"/>
     <use x="469.726562" xlink:href="#ArialMT-30"/>
    </g>
   </g>
   <g id="patch_8">
    <path d="M 799.895487 416.593842 
Q 758.921278 350.440321 717.358357 283.336316 
" style="fill:none;stroke:#262626;stroke-linecap:round;"/>
    <path d="M 799.546112 412.760954 
L 799.895487 416.593842 
L 796.619551 414.573609 
" style="fill:none;stroke:#262626;stroke-linecap:round;"/>
   </g>
   <g id="text_4">
    <g id="patch_9">
     <path d="M 783.140124 451.533237 
L 840.244491 451.533237 
L 840.244491 419.746763 
L 783.140124 419.746763 
z
" style="fill:#f6d5bd;stroke:#ffffff;stroke-linejoin:miter;"/>
    </g>
    <!-- mae = 0.6 -->
    <g style="fill:#262626;" transform="translate(792.436763 428.746893)scale(0.086061 -0.086061)">
     <use xlink:href="#ArialMT-6d"/>
     <use x="83.300781" xlink:href="#ArialMT-61"/>
     <use x="138.916016" xlink:href="#ArialMT-65"/>
     <use x="194.53125" xlink:href="#ArialMT-20"/>
     <use x="222.314453" xlink:href="#ArialMT-3d"/>
     <use x="280.712891" xlink:href="#ArialMT-20"/>
     <use x="308.496094" xlink:href="#ArialMT-30"/>
     <use x="364.111328" xlink:href="#ArialMT-2e"/>
     <use x="391.894531" xlink:href="#ArialMT-36"/>
    </g>
    <!-- samples = 10 -->
    <g style="fill:#262626;" transform="translate(785.980147 437.880149)scale(0.086061 -0.086061)">
     <use xlink:href="#ArialMT-73"/>
     <use x="50" xlink:href="#ArialMT-61"/>
     <use x="105.615234" xlink:href="#ArialMT-6d"/>
     <use x="188.916016" xlink:href="#ArialMT-70"/>
     <use x="244.53125" xlink:href="#ArialMT-6c"/>
     <use x="266.748047" xlink:href="#ArialMT-65"/>
     <use x="322.363281" xlink:href="#ArialMT-73"/>
     <use x="372.363281" xlink:href="#ArialMT-20"/>
     <use x="400.146484" xlink:href="#ArialMT-3d"/>
     <use x="458.544922" xlink:href="#ArialMT-20"/>
     <use x="486.328125" xlink:href="#ArialMT-31"/>
     <use x="541.943359" xlink:href="#ArialMT-30"/>
    </g>
    <!-- value = 0.0 -->
    <g style="fill:#262626;" transform="translate(790.520554 446.982746)scale(0.086061 -0.086061)">
     <use xlink:href="#ArialMT-76"/>
     <use x="50" xlink:href="#ArialMT-61"/>
     <use x="105.615234" xlink:href="#ArialMT-6c"/>
     <use x="127.832031" xlink:href="#ArialMT-75"/>
     <use x="183.447266" xlink:href="#ArialMT-65"/>
     <use x="239.0625" xlink:href="#ArialMT-20"/>
     <use x="266.845703" xlink:href="#ArialMT-3d"/>
     <use x="325.244141" xlink:href="#ArialMT-20"/>
     <use x="353.027344" xlink:href="#ArialMT-30"/>
     <use x="408.642578" xlink:href="#ArialMT-2e"/>
     <use x="436.425781" xlink:href="#ArialMT-30"/>
    </g>
   </g>
   <g id="patch_10">
    <path d="M 1014.25836 416.593842 
Q 1055.232569 350.440321 1096.795489 283.336316 
" style="fill:none;stroke:#262626;stroke-linecap:round;"/>
    <path d="M 1017.534295 414.573609 
L 1014.25836 416.593842 
L 1014.607734 412.760954 
" style="fill:none;stroke:#262626;stroke-linecap:round;"/>
   </g>
   <g id="text_5">
    <g id="patch_11">
     <path d="M 973.909355 451.533237 
L 1031.013722 451.533237 
L 1031.013722 419.746763 
L 973.909355 419.746763 
z
" style="fill:#eeab7b;stroke:#ffffff;stroke-linejoin:miter;"/>
    </g>
    <!-- mae = 0.531 -->
    <g style="fill:#262626;" transform="translate(978.420178 428.746893)scale(0.086061 -0.086061)">
     <defs>
      <path d="M 269 1209 
L 831 1284 
Q 928 806 1161 595 
Q 1394 384 1728 384 
Q 2125 384 2398 659 
Q 2672 934 2672 1341 
Q 2672 1728 2419 1979 
Q 2166 2231 1775 2231 
Q 1616 2231 1378 2169 
L 1441 2663 
Q 1497 2656 1531 2656 
Q 1891 2656 2178 2843 
Q 2466 3031 2466 3422 
Q 2466 3731 2256 3934 
Q 2047 4138 1716 4138 
Q 1388 4138 1169 3931 
Q 950 3725 888 3313 
L 325 3413 
Q 428 3978 793 4289 
Q 1159 4600 1703 4600 
Q 2078 4600 2393 4439 
Q 2709 4278 2876 4000 
Q 3044 3722 3044 3409 
Q 3044 3113 2884 2869 
Q 2725 2625 2413 2481 
Q 2819 2388 3044 2092 
Q 3269 1797 3269 1353 
Q 3269 753 2831 336 
Q 2394 -81 1725 -81 
Q 1122 -81 723 278 
Q 325 638 269 1209 
z
" id="ArialMT-33" transform="scale(0.015625)"/>
     </defs>
     <use xlink:href="#ArialMT-6d"/>
     <use x="83.300781" xlink:href="#ArialMT-61"/>
     <use x="138.916016" xlink:href="#ArialMT-65"/>
     <use x="194.53125" xlink:href="#ArialMT-20"/>
     <use x="222.314453" xlink:href="#ArialMT-3d"/>
     <use x="280.712891" xlink:href="#ArialMT-20"/>
     <use x="308.496094" xlink:href="#ArialMT-30"/>
     <use x="364.111328" xlink:href="#ArialMT-2e"/>
     <use x="391.894531" xlink:href="#ArialMT-35"/>
     <use x="447.509766" xlink:href="#ArialMT-33"/>
     <use x="503.125" xlink:href="#ArialMT-31"/>
    </g>
    <!-- samples = 16 -->
    <g style="fill:#262626;" transform="translate(976.749378 437.880149)scale(0.086061 -0.086061)">
     <use xlink:href="#ArialMT-73"/>
     <use x="50" xlink:href="#ArialMT-61"/>
     <use x="105.615234" xlink:href="#ArialMT-6d"/>
     <use x="188.916016" xlink:href="#ArialMT-70"/>
     <use x="244.53125" xlink:href="#ArialMT-6c"/>
     <use x="266.748047" xlink:href="#ArialMT-65"/>
     <use x="322.363281" xlink:href="#ArialMT-73"/>
     <use x="372.363281" xlink:href="#ArialMT-20"/>
     <use x="400.146484" xlink:href="#ArialMT-3d"/>
     <use x="458.544922" xlink:href="#ArialMT-20"/>
     <use x="486.328125" xlink:href="#ArialMT-31"/>
     <use x="541.943359" xlink:href="#ArialMT-36"/>
    </g>
    <!-- value = 1.0 -->
    <g style="fill:#262626;" transform="translate(981.289785 446.982746)scale(0.086061 -0.086061)">
     <use xlink:href="#ArialMT-76"/>
     <use x="50" xlink:href="#ArialMT-61"/>
     <use x="105.615234" xlink:href="#ArialMT-6c"/>
     <use x="127.832031" xlink:href="#ArialMT-75"/>
     <use x="183.447266" xlink:href="#ArialMT-65"/>
     <use x="239.0625" xlink:href="#ArialMT-20"/>
     <use x="266.845703" xlink:href="#ArialMT-3d"/>
     <use x="325.244141" xlink:href="#ArialMT-20"/>
     <use x="353.027344" xlink:href="#ArialMT-31"/>
     <use x="408.642578" xlink:href="#ArialMT-2e"/>
     <use x="436.425781" xlink:href="#ArialMT-30"/>
    </g>
   </g>
   <g id="patch_12">
    <path d="M 1181.433948 416.593842 
Q 1140.459739 350.440321 1098.896819 283.336316 
" style="fill:none;stroke:#262626;stroke-linecap:round;"/>
    <path d="M 1181.084573 412.760954 
L 1181.433948 416.593842 
L 1178.158013 414.573609 
" style="fill:none;stroke:#262626;stroke-linecap:round;"/>
   </g>
   <g id="text_6">
    <g id="patch_13">
     <path d="M 1167.071494 451.533237 
L 1219.390045 451.533237 
L 1219.390045 419.746763 
L 1167.071494 419.746763 
z
" style="fill:#e58139;stroke:#ffffff;stroke-linejoin:miter;"/>
    </g>
    <!-- mae = 0.0 -->
    <g style="fill:#262626;" transform="translate(1173.975224 428.746893)scale(0.086061 -0.086061)">
     <use xlink:href="#ArialMT-6d"/>
     <use x="83.300781" xlink:href="#ArialMT-61"/>
     <use x="138.916016" xlink:href="#ArialMT-65"/>
     <use x="194.53125" xlink:href="#ArialMT-20"/>
     <use x="222.314453" xlink:href="#ArialMT-3d"/>
     <use x="280.712891" xlink:href="#ArialMT-20"/>
     <use x="308.496094" xlink:href="#ArialMT-30"/>
     <use x="364.111328" xlink:href="#ArialMT-2e"/>
     <use x="391.894531" xlink:href="#ArialMT-30"/>
    </g>
    <!-- samples = 2 -->
    <g style="fill:#262626;" transform="translate(1169.911517 437.880149)scale(0.086061 -0.086061)">
     <use xlink:href="#ArialMT-73"/>
     <use x="50" xlink:href="#ArialMT-61"/>
     <use x="105.615234" xlink:href="#ArialMT-6d"/>
     <use x="188.916016" xlink:href="#ArialMT-70"/>
     <use x="244.53125" xlink:href="#ArialMT-6c"/>
     <use x="266.748047" xlink:href="#ArialMT-65"/>
     <use x="322.363281" xlink:href="#ArialMT-73"/>
     <use x="372.363281" xlink:href="#ArialMT-20"/>
     <use x="400.146484" xlink:href="#ArialMT-3d"/>
     <use x="458.544922" xlink:href="#ArialMT-20"/>
     <use x="486.328125" xlink:href="#ArialMT-32"/>
    </g>
    <!-- value = 2.0 -->
    <g style="fill:#262626;" transform="translate(1172.059015 446.982746)scale(0.086061 -0.086061)">
     <use xlink:href="#ArialMT-76"/>
     <use x="50" xlink:href="#ArialMT-61"/>
     <use x="105.615234" xlink:href="#ArialMT-6c"/>
     <use x="127.832031" xlink:href="#ArialMT-75"/>
     <use x="183.447266" xlink:href="#ArialMT-65"/>
     <use x="239.0625" xlink:href="#ArialMT-20"/>
     <use x="266.845703" xlink:href="#ArialMT-3d"/>
     <use x="325.244141" xlink:href="#ArialMT-20"/>
     <use x="353.027344" xlink:href="#ArialMT-32"/>
     <use x="408.642578" xlink:href="#ArialMT-2e"/>
     <use x="436.425781" xlink:href="#ArialMT-30"/>
    </g>
   </g>
   <g id="patch_14">
    <path d="M 363.342734 258.573809 
Q 443.228065 194.085731 523.983346 128.89538 
" style="fill:none;stroke:#262626;stroke-linecap:round;"/>
    <path d="M 367.102486 257.750789 
L 363.342734 258.573809 
L 364.94017 255.072196 
" style="fill:none;stroke:#262626;stroke-linecap:round;"/>
   </g>
   <g id="text_7">
    <g id="patch_15">
     <path d="M 281.933639 302.147737 
L 387.604822 302.147737 
L 387.604822 261.03141 
L 281.933639 261.03141 
z
" style="fill:#f6d5bd;stroke:#ffffff;stroke-linejoin:miter;"/>
    </g>
    <!-- knee_intensity_kite &lt;= 6.5 -->
    <g style="fill:#262626;" transform="translate(284.773663 270.157942)scale(0.086061 -0.086061)">
     <defs>
      <path d="M 425 0 
L 425 4581 
L 988 4581 
L 988 1969 
L 2319 3319 
L 3047 3319 
L 1778 2088 
L 3175 0 
L 2481 0 
L 1384 1697 
L 988 1316 
L 988 0 
L 425 0 
z
" id="ArialMT-6b" transform="scale(0.015625)"/>
      <path d="M 422 0 
L 422 3319 
L 928 3319 
L 928 2847 
Q 1294 3394 1984 3394 
Q 2284 3394 2536 3286 
Q 2788 3178 2913 3003 
Q 3038 2828 3088 2588 
Q 3119 2431 3119 2041 
L 3119 0 
L 2556 0 
L 2556 2019 
Q 2556 2363 2490 2533 
Q 2425 2703 2258 2804 
Q 2091 2906 1866 2906 
Q 1506 2906 1245 2678 
Q 984 2450 984 1813 
L 984 0 
L 422 0 
z
" id="ArialMT-6e" transform="scale(0.015625)"/>
      <path d="M -97 -1272 
L -97 -866 
L 3631 -866 
L 3631 -1272 
L -97 -1272 
z
" id="ArialMT-5f" transform="scale(0.015625)"/>
      <path d="M 425 3934 
L 425 4581 
L 988 4581 
L 988 3934 
L 425 3934 
z
M 425 0 
L 425 3319 
L 988 3319 
L 988 0 
L 425 0 
z
" id="ArialMT-69" transform="scale(0.015625)"/>
      <path d="M 1650 503 
L 1731 6 
Q 1494 -44 1306 -44 
Q 1000 -44 831 53 
Q 663 150 594 308 
Q 525 466 525 972 
L 525 2881 
L 113 2881 
L 113 3319 
L 525 3319 
L 525 4141 
L 1084 4478 
L 1084 3319 
L 1650 3319 
L 1650 2881 
L 1084 2881 
L 1084 941 
Q 1084 700 1114 631 
Q 1144 563 1211 522 
Q 1278 481 1403 481 
Q 1497 481 1650 503 
z
" id="ArialMT-74" transform="scale(0.015625)"/>
      <path d="M 397 -1278 
L 334 -750 
Q 519 -800 656 -800 
Q 844 -800 956 -737 
Q 1069 -675 1141 -563 
Q 1194 -478 1313 -144 
Q 1328 -97 1363 -6 
L 103 3319 
L 709 3319 
L 1400 1397 
Q 1534 1031 1641 628 
Q 1738 1016 1872 1384 
L 2581 3319 
L 3144 3319 
L 1881 -56 
Q 1678 -603 1566 -809 
Q 1416 -1088 1222 -1217 
Q 1028 -1347 759 -1347 
Q 597 -1347 397 -1278 
z
" id="ArialMT-79" transform="scale(0.015625)"/>
      <path d="M 350 2003 
L 350 2528 
L 3384 3809 
L 3384 3250 
L 978 2263 
L 3384 1266 
L 3384 706 
L 350 2003 
z
" id="ArialMT-3c" transform="scale(0.015625)"/>
     </defs>
     <use xlink:href="#ArialMT-6b"/>
     <use x="50" xlink:href="#ArialMT-6e"/>
     <use x="105.615234" xlink:href="#ArialMT-65"/>
     <use x="161.230469" xlink:href="#ArialMT-65"/>
     <use x="216.845703" xlink:href="#ArialMT-5f"/>
     <use x="272.460938" xlink:href="#ArialMT-69"/>
     <use x="294.677734" xlink:href="#ArialMT-6e"/>
     <use x="350.292969" xlink:href="#ArialMT-74"/>
     <use x="378.076172" xlink:href="#ArialMT-65"/>
     <use x="433.691406" xlink:href="#ArialMT-6e"/>
     <use x="489.306641" xlink:href="#ArialMT-73"/>
     <use x="539.306641" xlink:href="#ArialMT-69"/>
     <use x="561.523438" xlink:href="#ArialMT-74"/>
     <use x="589.306641" xlink:href="#ArialMT-79"/>
     <use x="639.306641" xlink:href="#ArialMT-5f"/>
     <use x="694.921875" xlink:href="#ArialMT-6b"/>
     <use x="744.921875" xlink:href="#ArialMT-69"/>
     <use x="767.138672" xlink:href="#ArialMT-74"/>
     <use x="794.921875" xlink:href="#ArialMT-65"/>
     <use x="850.537109" xlink:href="#ArialMT-20"/>
     <use x="878.320312" xlink:href="#ArialMT-3c"/>
     <use x="936.71875" xlink:href="#ArialMT-3d"/>
     <use x="995.117188" xlink:href="#ArialMT-20"/>
     <use x="1022.900391" xlink:href="#ArialMT-36"/>
     <use x="1078.515625" xlink:href="#ArialMT-2e"/>
     <use x="1106.298828" xlink:href="#ArialMT-35"/>
    </g>
    <!-- mae = 0.615 -->
    <g style="fill:#262626;" transform="translate(310.72787 279.361392)scale(0.086061 -0.086061)">
     <use xlink:href="#ArialMT-6d"/>
     <use x="83.300781" xlink:href="#ArialMT-61"/>
     <use x="138.916016" xlink:href="#ArialMT-65"/>
     <use x="194.53125" xlink:href="#ArialMT-20"/>
     <use x="222.314453" xlink:href="#ArialMT-3d"/>
     <use x="280.712891" xlink:href="#ArialMT-20"/>
     <use x="308.496094" xlink:href="#ArialMT-30"/>
     <use x="364.111328" xlink:href="#ArialMT-2e"/>
     <use x="391.894531" xlink:href="#ArialMT-36"/>
     <use x="447.509766" xlink:href="#ArialMT-31"/>
     <use x="503.125" xlink:href="#ArialMT-35"/>
    </g>
    <!-- samples = 209 -->
    <g style="fill:#262626;" transform="translate(306.664163 288.494649)scale(0.086061 -0.086061)">
     <defs>
      <path d="M 350 1059 
L 891 1109 
Q 959 728 1153 556 
Q 1347 384 1650 384 
Q 1909 384 2104 503 
Q 2300 622 2425 820 
Q 2550 1019 2634 1356 
Q 2719 1694 2719 2044 
Q 2719 2081 2716 2156 
Q 2547 1888 2255 1720 
Q 1963 1553 1622 1553 
Q 1053 1553 659 1965 
Q 266 2378 266 3053 
Q 266 3750 677 4175 
Q 1088 4600 1706 4600 
Q 2153 4600 2523 4359 
Q 2894 4119 3086 3673 
Q 3278 3228 3278 2384 
Q 3278 1506 3087 986 
Q 2897 466 2520 194 
Q 2144 -78 1638 -78 
Q 1100 -78 759 220 
Q 419 519 350 1059 
z
M 2653 3081 
Q 2653 3566 2395 3850 
Q 2138 4134 1775 4134 
Q 1400 4134 1122 3828 
Q 844 3522 844 3034 
Q 844 2597 1108 2323 
Q 1372 2050 1759 2050 
Q 2150 2050 2401 2323 
Q 2653 2597 2653 3081 
z
" id="ArialMT-39" transform="scale(0.015625)"/>
     </defs>
     <use xlink:href="#ArialMT-73"/>
     <use x="50" xlink:href="#ArialMT-61"/>
     <use x="105.615234" xlink:href="#ArialMT-6d"/>
     <use x="188.916016" xlink:href="#ArialMT-70"/>
     <use x="244.53125" xlink:href="#ArialMT-6c"/>
     <use x="266.748047" xlink:href="#ArialMT-65"/>
     <use x="322.363281" xlink:href="#ArialMT-73"/>
     <use x="372.363281" xlink:href="#ArialMT-20"/>
     <use x="400.146484" xlink:href="#ArialMT-3d"/>
     <use x="458.544922" xlink:href="#ArialMT-20"/>
     <use x="486.328125" xlink:href="#ArialMT-32"/>
     <use x="541.943359" xlink:href="#ArialMT-30"/>
     <use x="597.558594" xlink:href="#ArialMT-39"/>
    </g>
    <!-- value = 0.0 -->
    <g style="fill:#262626;" transform="translate(313.597477 297.597246)scale(0.086061 -0.086061)">
     <use xlink:href="#ArialMT-76"/>
     <use x="50" xlink:href="#ArialMT-61"/>
     <use x="105.615234" xlink:href="#ArialMT-6c"/>
     <use x="127.832031" xlink:href="#ArialMT-75"/>
     <use x="183.447266" xlink:href="#ArialMT-65"/>
     <use x="239.0625" xlink:href="#ArialMT-20"/>
     <use x="266.845703" xlink:href="#ArialMT-3d"/>
     <use x="325.244141" xlink:href="#ArialMT-20"/>
     <use x="353.027344" xlink:href="#ArialMT-30"/>
     <use x="408.642578" xlink:href="#ArialMT-2e"/>
     <use x="436.425781" xlink:href="#ArialMT-30"/>
    </g>
   </g>
   <g id="patch_16">
    <path d="M 687.734189 258.573809 
Q 607.848858 194.085731 527.093577 128.89538 
" style="fill:none;stroke:#262626;stroke-linecap:round;"/>
    <path d="M 686.136753 255.072196 
L 687.734189 258.573809 
L 683.974437 257.750789 
" style="fill:none;stroke:#262626;stroke-linecap:round;"/>
   </g>
   <g id="text_8">
    <g id="patch_17">
     <path d="M 647.440493 302.147737 
L 785.174892 302.147737 
L 785.174892 261.03141 
L 647.440493 261.03141 
z
" style="fill:#ffffff;stroke:#ffffff;stroke-linejoin:miter;"/>
    </g>
    <!-- knee_intensity_other_lag_3 &lt;= 0.5 -->
    <g style="fill:#262626;" transform="translate(650.280516 270.157942)scale(0.086061 -0.086061)">
     <defs>
      <path d="M 213 1659 
Q 213 2581 725 3025 
Q 1153 3394 1769 3394 
Q 2453 3394 2887 2945 
Q 3322 2497 3322 1706 
Q 3322 1066 3130 698 
Q 2938 331 2570 128 
Q 2203 -75 1769 -75 
Q 1072 -75 642 372 
Q 213 819 213 1659 
z
M 791 1659 
Q 791 1022 1069 705 
Q 1347 388 1769 388 
Q 2188 388 2466 706 
Q 2744 1025 2744 1678 
Q 2744 2294 2464 2611 
Q 2184 2928 1769 2928 
Q 1347 2928 1069 2612 
Q 791 2297 791 1659 
z
" id="ArialMT-6f" transform="scale(0.015625)"/>
      <path d="M 422 0 
L 422 4581 
L 984 4581 
L 984 2938 
Q 1378 3394 1978 3394 
Q 2347 3394 2619 3248 
Q 2891 3103 3008 2847 
Q 3125 2591 3125 2103 
L 3125 0 
L 2563 0 
L 2563 2103 
Q 2563 2525 2380 2717 
Q 2197 2909 1863 2909 
Q 1613 2909 1392 2779 
Q 1172 2650 1078 2428 
Q 984 2206 984 1816 
L 984 0 
L 422 0 
z
" id="ArialMT-68" transform="scale(0.015625)"/>
      <path d="M 416 0 
L 416 3319 
L 922 3319 
L 922 2816 
Q 1116 3169 1280 3281 
Q 1444 3394 1641 3394 
Q 1925 3394 2219 3213 
L 2025 2691 
Q 1819 2813 1613 2813 
Q 1428 2813 1281 2702 
Q 1134 2591 1072 2394 
Q 978 2094 978 1738 
L 978 0 
L 416 0 
z
" id="ArialMT-72" transform="scale(0.015625)"/>
      <path d="M 319 -275 
L 866 -356 
Q 900 -609 1056 -725 
Q 1266 -881 1628 -881 
Q 2019 -881 2231 -725 
Q 2444 -569 2519 -288 
Q 2563 -116 2559 434 
Q 2191 0 1641 0 
Q 956 0 581 494 
Q 206 988 206 1678 
Q 206 2153 378 2554 
Q 550 2956 876 3175 
Q 1203 3394 1644 3394 
Q 2231 3394 2613 2919 
L 2613 3319 
L 3131 3319 
L 3131 450 
Q 3131 -325 2973 -648 
Q 2816 -972 2473 -1159 
Q 2131 -1347 1631 -1347 
Q 1038 -1347 672 -1080 
Q 306 -813 319 -275 
z
M 784 1719 
Q 784 1066 1043 766 
Q 1303 466 1694 466 
Q 2081 466 2343 764 
Q 2606 1063 2606 1700 
Q 2606 2309 2336 2618 
Q 2066 2928 1684 2928 
Q 1309 2928 1046 2623 
Q 784 2319 784 1719 
z
" id="ArialMT-67" transform="scale(0.015625)"/>
     </defs>
     <use xlink:href="#ArialMT-6b"/>
     <use x="50" xlink:href="#ArialMT-6e"/>
     <use x="105.615234" xlink:href="#ArialMT-65"/>
     <use x="161.230469" xlink:href="#ArialMT-65"/>
     <use x="216.845703" xlink:href="#ArialMT-5f"/>
     <use x="272.460938" xlink:href="#ArialMT-69"/>
     <use x="294.677734" xlink:href="#ArialMT-6e"/>
     <use x="350.292969" xlink:href="#ArialMT-74"/>
     <use x="378.076172" xlink:href="#ArialMT-65"/>
     <use x="433.691406" xlink:href="#ArialMT-6e"/>
     <use x="489.306641" xlink:href="#ArialMT-73"/>
     <use x="539.306641" xlink:href="#ArialMT-69"/>
     <use x="561.523438" xlink:href="#ArialMT-74"/>
     <use x="589.306641" xlink:href="#ArialMT-79"/>
     <use x="639.306641" xlink:href="#ArialMT-5f"/>
     <use x="694.921875" xlink:href="#ArialMT-6f"/>
     <use x="750.537109" xlink:href="#ArialMT-74"/>
     <use x="778.320312" xlink:href="#ArialMT-68"/>
     <use x="833.935547" xlink:href="#ArialMT-65"/>
     <use x="889.550781" xlink:href="#ArialMT-72"/>
     <use x="922.851562" xlink:href="#ArialMT-5f"/>
     <use x="978.466797" xlink:href="#ArialMT-6c"/>
     <use x="1000.683594" xlink:href="#ArialMT-61"/>
     <use x="1056.298828" xlink:href="#ArialMT-67"/>
     <use x="1111.914062" xlink:href="#ArialMT-5f"/>
     <use x="1167.529297" xlink:href="#ArialMT-33"/>
     <use x="1223.144531" xlink:href="#ArialMT-20"/>
     <use x="1250.927734" xlink:href="#ArialMT-3c"/>
     <use x="1309.326172" xlink:href="#ArialMT-3d"/>
     <use x="1367.724609" xlink:href="#ArialMT-20"/>
     <use x="1395.507812" xlink:href="#ArialMT-30"/>
     <use x="1451.123047" xlink:href="#ArialMT-2e"/>
     <use x="1478.90625" xlink:href="#ArialMT-35"/>
    </g>
    <!-- mae = 0.686 -->
    <g style="fill:#262626;" transform="translate(692.266332 279.361392)scale(0.086061 -0.086061)">
     <defs>
      <path d="M 1131 2484 
Q 781 2613 612 2850 
Q 444 3088 444 3419 
Q 444 3919 803 4259 
Q 1163 4600 1759 4600 
Q 2359 4600 2725 4251 
Q 3091 3903 3091 3403 
Q 3091 3084 2923 2848 
Q 2756 2613 2416 2484 
Q 2838 2347 3058 2040 
Q 3278 1734 3278 1309 
Q 3278 722 2862 322 
Q 2447 -78 1769 -78 
Q 1091 -78 675 323 
Q 259 725 259 1325 
Q 259 1772 486 2073 
Q 713 2375 1131 2484 
z
M 1019 3438 
Q 1019 3113 1228 2906 
Q 1438 2700 1772 2700 
Q 2097 2700 2305 2904 
Q 2513 3109 2513 3406 
Q 2513 3716 2298 3927 
Q 2084 4138 1766 4138 
Q 1444 4138 1231 3931 
Q 1019 3725 1019 3438 
z
M 838 1322 
Q 838 1081 952 856 
Q 1066 631 1291 507 
Q 1516 384 1775 384 
Q 2178 384 2440 643 
Q 2703 903 2703 1303 
Q 2703 1709 2433 1975 
Q 2163 2241 1756 2241 
Q 1359 2241 1098 1978 
Q 838 1716 838 1322 
z
" id="ArialMT-38" transform="scale(0.015625)"/>
     </defs>
     <use xlink:href="#ArialMT-6d"/>
     <use x="83.300781" xlink:href="#ArialMT-61"/>
     <use x="138.916016" xlink:href="#ArialMT-65"/>
     <use x="194.53125" xlink:href="#ArialMT-20"/>
     <use x="222.314453" xlink:href="#ArialMT-3d"/>
     <use x="280.712891" xlink:href="#ArialMT-20"/>
     <use x="308.496094" xlink:href="#ArialMT-30"/>
     <use x="364.111328" xlink:href="#ArialMT-2e"/>
     <use x="391.894531" xlink:href="#ArialMT-36"/>
     <use x="447.509766" xlink:href="#ArialMT-38"/>
     <use x="503.125" xlink:href="#ArialMT-36"/>
    </g>
    <!-- samples = 35 -->
    <g style="fill:#262626;" transform="translate(690.595532 288.494649)scale(0.086061 -0.086061)">
     <use xlink:href="#ArialMT-73"/>
     <use x="50" xlink:href="#ArialMT-61"/>
     <use x="105.615234" xlink:href="#ArialMT-6d"/>
     <use x="188.916016" xlink:href="#ArialMT-70"/>
     <use x="244.53125" xlink:href="#ArialMT-6c"/>
     <use x="266.748047" xlink:href="#ArialMT-65"/>
     <use x="322.363281" xlink:href="#ArialMT-73"/>
     <use x="372.363281" xlink:href="#ArialMT-20"/>
     <use x="400.146484" xlink:href="#ArialMT-3d"/>
     <use x="458.544922" xlink:href="#ArialMT-20"/>
     <use x="486.328125" xlink:href="#ArialMT-33"/>
     <use x="541.943359" xlink:href="#ArialMT-35"/>
    </g>
    <!-- value = -1.0 -->
    <g style="fill:#262626;" transform="translate(693.703152 297.597246)scale(0.086061 -0.086061)">
     <use xlink:href="#ArialMT-76"/>
     <use x="50" xlink:href="#ArialMT-61"/>
     <use x="105.615234" xlink:href="#ArialMT-6c"/>
     <use x="127.832031" xlink:href="#ArialMT-75"/>
     <use x="183.447266" xlink:href="#ArialMT-65"/>
     <use x="239.0625" xlink:href="#ArialMT-20"/>
     <use x="266.845703" xlink:href="#ArialMT-3d"/>
     <use x="325.244141" xlink:href="#ArialMT-20"/>
     <use x="353.027344" xlink:href="#ArialMT-2d"/>
     <use x="386.328125" xlink:href="#ArialMT-31"/>
     <use x="441.943359" xlink:href="#ArialMT-2e"/>
     <use x="469.726562" xlink:href="#ArialMT-30"/>
    </g>
   </g>
   <g id="patch_18">
    <path d="M 1112.561696 257.88152 
Q 1152.074922 194.08678 1192.176858 129.341556 
" style="fill:none;stroke:#262626;stroke-linecap:round;"/>
    <path d="M 1115.837632 255.861286 
L 1112.561696 257.88152 
L 1112.911071 254.048631 
" style="fill:none;stroke:#262626;stroke-linecap:round;"/>
   </g>
   <g id="text_9">
    <g id="patch_19">
     <path d="M 1028.978955 302.147737 
L 1166.713353 302.147737 
L 1166.713353 261.03141 
L 1028.978955 261.03141 
z
" style="fill:#eeab7b;stroke:#ffffff;stroke-linejoin:miter;"/>
    </g>
    <!-- knee_intensity_other_lag_2 &lt;= 3.5 -->
    <g style="fill:#262626;" transform="translate(1031.818978 270.157942)scale(0.086061 -0.086061)">
     <use xlink:href="#ArialMT-6b"/>
     <use x="50" xlink:href="#ArialMT-6e"/>
     <use x="105.615234" xlink:href="#ArialMT-65"/>
     <use x="161.230469" xlink:href="#ArialMT-65"/>
     <use x="216.845703" xlink:href="#ArialMT-5f"/>
     <use x="272.460938" xlink:href="#ArialMT-69"/>
     <use x="294.677734" xlink:href="#ArialMT-6e"/>
     <use x="350.292969" xlink:href="#ArialMT-74"/>
     <use x="378.076172" xlink:href="#ArialMT-65"/>
     <use x="433.691406" xlink:href="#ArialMT-6e"/>
     <use x="489.306641" xlink:href="#ArialMT-73"/>
     <use x="539.306641" xlink:href="#ArialMT-69"/>
     <use x="561.523438" xlink:href="#ArialMT-74"/>
     <use x="589.306641" xlink:href="#ArialMT-79"/>
     <use x="639.306641" xlink:href="#ArialMT-5f"/>
     <use x="694.921875" xlink:href="#ArialMT-6f"/>
     <use x="750.537109" xlink:href="#ArialMT-74"/>
     <use x="778.320312" xlink:href="#ArialMT-68"/>
     <use x="833.935547" xlink:href="#ArialMT-65"/>
     <use x="889.550781" xlink:href="#ArialMT-72"/>
     <use x="922.851562" xlink:href="#ArialMT-5f"/>
     <use x="978.466797" xlink:href="#ArialMT-6c"/>
     <use x="1000.683594" xlink:href="#ArialMT-61"/>
     <use x="1056.298828" xlink:href="#ArialMT-67"/>
     <use x="1111.914062" xlink:href="#ArialMT-5f"/>
     <use x="1167.529297" xlink:href="#ArialMT-32"/>
     <use x="1223.144531" xlink:href="#ArialMT-20"/>
     <use x="1250.927734" xlink:href="#ArialMT-3c"/>
     <use x="1309.326172" xlink:href="#ArialMT-3d"/>
     <use x="1367.724609" xlink:href="#ArialMT-20"/>
     <use x="1395.507812" xlink:href="#ArialMT-33"/>
     <use x="1451.123047" xlink:href="#ArialMT-2e"/>
     <use x="1478.90625" xlink:href="#ArialMT-35"/>
    </g>
    <!-- mae = 0.583 -->
    <g style="fill:#262626;" transform="translate(1073.804793 279.361392)scale(0.086061 -0.086061)">
     <use xlink:href="#ArialMT-6d"/>
     <use x="83.300781" xlink:href="#ArialMT-61"/>
     <use x="138.916016" xlink:href="#ArialMT-65"/>
     <use x="194.53125" xlink:href="#ArialMT-20"/>
     <use x="222.314453" xlink:href="#ArialMT-3d"/>
     <use x="280.712891" xlink:href="#ArialMT-20"/>
     <use x="308.496094" xlink:href="#ArialMT-30"/>
     <use x="364.111328" xlink:href="#ArialMT-2e"/>
     <use x="391.894531" xlink:href="#ArialMT-35"/>
     <use x="447.509766" xlink:href="#ArialMT-38"/>
     <use x="503.125" xlink:href="#ArialMT-33"/>
    </g>
    <!-- samples = 18 -->
    <g style="fill:#262626;" transform="translate(1072.133994 288.494649)scale(0.086061 -0.086061)">
     <use xlink:href="#ArialMT-73"/>
     <use x="50" xlink:href="#ArialMT-61"/>
     <use x="105.615234" xlink:href="#ArialMT-6d"/>
     <use x="188.916016" xlink:href="#ArialMT-70"/>
     <use x="244.53125" xlink:href="#ArialMT-6c"/>
     <use x="266.748047" xlink:href="#ArialMT-65"/>
     <use x="322.363281" xlink:href="#ArialMT-73"/>
     <use x="372.363281" xlink:href="#ArialMT-20"/>
     <use x="400.146484" xlink:href="#ArialMT-3d"/>
     <use x="458.544922" xlink:href="#ArialMT-20"/>
     <use x="486.328125" xlink:href="#ArialMT-31"/>
     <use x="541.943359" xlink:href="#ArialMT-38"/>
    </g>
    <!-- value = 1.0 -->
    <g style="fill:#262626;" transform="translate(1076.6744 297.597246)scale(0.086061 -0.086061)">
     <use xlink:href="#ArialMT-76"/>
     <use x="50" xlink:href="#ArialMT-61"/>
     <use x="105.615234" xlink:href="#ArialMT-6c"/>
     <use x="127.832031" xlink:href="#ArialMT-75"/>
     <use x="183.447266" xlink:href="#ArialMT-65"/>
     <use x="239.0625" xlink:href="#ArialMT-20"/>
     <use x="266.845703" xlink:href="#ArialMT-3d"/>
     <use x="325.244141" xlink:href="#ArialMT-20"/>
     <use x="353.027344" xlink:href="#ArialMT-31"/>
     <use x="408.642578" xlink:href="#ArialMT-2e"/>
     <use x="436.425781" xlink:href="#ArialMT-30"/>
    </g>
   </g>
   <g id="patch_20">
    <path d="M 1276.818564 262.593842 
Q 1235.844354 196.440321 1194.281434 129.336316 
" style="fill:none;stroke:#262626;stroke-linecap:round;"/>
    <path d="M 1276.469189 258.760954 
L 1276.818564 262.593842 
L 1273.542628 260.573609 
" style="fill:none;stroke:#262626;stroke-linecap:round;"/>
   </g>
   <g id="text_10">
    <g id="patch_21">
     <path d="M 1262.456109 297.533237 
L 1314.77466 297.533237 
L 1314.77466 265.746763 
L 1262.456109 265.746763 
z
" style="fill:#f6d5bd;stroke:#ffffff;stroke-linejoin:miter;"/>
    </g>
    <!-- mae = 0.0 -->
    <g style="fill:#262626;" transform="translate(1269.35984 274.746893)scale(0.086061 -0.086061)">
     <use xlink:href="#ArialMT-6d"/>
     <use x="83.300781" xlink:href="#ArialMT-61"/>
     <use x="138.916016" xlink:href="#ArialMT-65"/>
     <use x="194.53125" xlink:href="#ArialMT-20"/>
     <use x="222.314453" xlink:href="#ArialMT-3d"/>
     <use x="280.712891" xlink:href="#ArialMT-20"/>
     <use x="308.496094" xlink:href="#ArialMT-30"/>
     <use x="364.111328" xlink:href="#ArialMT-2e"/>
     <use x="391.894531" xlink:href="#ArialMT-30"/>
    </g>
    <!-- samples = 3 -->
    <g style="fill:#262626;" transform="translate(1265.296132 283.880149)scale(0.086061 -0.086061)">
     <use xlink:href="#ArialMT-73"/>
     <use x="50" xlink:href="#ArialMT-61"/>
     <use x="105.615234" xlink:href="#ArialMT-6d"/>
     <use x="188.916016" xlink:href="#ArialMT-70"/>
     <use x="244.53125" xlink:href="#ArialMT-6c"/>
     <use x="266.748047" xlink:href="#ArialMT-65"/>
     <use x="322.363281" xlink:href="#ArialMT-73"/>
     <use x="372.363281" xlink:href="#ArialMT-20"/>
     <use x="400.146484" xlink:href="#ArialMT-3d"/>
     <use x="458.544922" xlink:href="#ArialMT-20"/>
     <use x="486.328125" xlink:href="#ArialMT-33"/>
    </g>
    <!-- value = 0.0 -->
    <g style="fill:#262626;" transform="translate(1267.443631 292.982746)scale(0.086061 -0.086061)">
     <use xlink:href="#ArialMT-76"/>
     <use x="50" xlink:href="#ArialMT-61"/>
     <use x="105.615234" xlink:href="#ArialMT-6c"/>
     <use x="127.832031" xlink:href="#ArialMT-75"/>
     <use x="183.447266" xlink:href="#ArialMT-65"/>
     <use x="239.0625" xlink:href="#ArialMT-20"/>
     <use x="266.845703" xlink:href="#ArialMT-3d"/>
     <use x="325.244141" xlink:href="#ArialMT-20"/>
     <use x="353.027344" xlink:href="#ArialMT-30"/>
     <use x="408.642578" xlink:href="#ArialMT-2e"/>
     <use x="436.425781" xlink:href="#ArialMT-30"/>
    </g>
   </g>
   <g id="patch_22">
    <path d="M 574.212886 105.186959 
Q 715.385013 40.065623 857.572366 -25.524027 
" style="fill:none;stroke:#262626;stroke-linecap:round;"/>
    <path d="M 578.059762 105.307962 
L 574.212886 105.186959 
L 576.617813 102.18206 
" style="fill:none;stroke:#262626;stroke-linecap:round;"/>
   </g>
   <g id="text_11">
    <g id="patch_23">
     <path d="M 460.742366 148.187406 
L 590.334558 148.187406 
L 590.334558 106.991741 
L 460.742366 106.991741 
z
" style="fill:#f6d5bd;stroke:#ffffff;stroke-linejoin:miter;"/>
    </g>
    <!-- knee_intensity_CF_lag_1 &lt;= 5.5 -->
    <g style="fill:#262626;" transform="translate(463.582389 116.197611)scale(0.086061 -0.086061)">
     <defs>
      <path d="M 3763 1606 
L 4369 1453 
Q 4178 706 3683 314 
Q 3188 -78 2472 -78 
Q 1731 -78 1267 223 
Q 803 525 561 1097 
Q 319 1669 319 2325 
Q 319 3041 592 3573 
Q 866 4106 1370 4382 
Q 1875 4659 2481 4659 
Q 3169 4659 3637 4309 
Q 4106 3959 4291 3325 
L 3694 3184 
Q 3534 3684 3231 3912 
Q 2928 4141 2469 4141 
Q 1941 4141 1586 3887 
Q 1231 3634 1087 3207 
Q 944 2781 944 2328 
Q 944 1744 1114 1308 
Q 1284 872 1643 656 
Q 2003 441 2422 441 
Q 2931 441 3284 734 
Q 3638 1028 3763 1606 
z
" id="ArialMT-43" transform="scale(0.015625)"/>
      <path d="M 525 0 
L 525 4581 
L 3616 4581 
L 3616 4041 
L 1131 4041 
L 1131 2622 
L 3281 2622 
L 3281 2081 
L 1131 2081 
L 1131 0 
L 525 0 
z
" id="ArialMT-46" transform="scale(0.015625)"/>
     </defs>
     <use xlink:href="#ArialMT-6b"/>
     <use x="50" xlink:href="#ArialMT-6e"/>
     <use x="105.615234" xlink:href="#ArialMT-65"/>
     <use x="161.230469" xlink:href="#ArialMT-65"/>
     <use x="216.845703" xlink:href="#ArialMT-5f"/>
     <use x="272.460938" xlink:href="#ArialMT-69"/>
     <use x="294.677734" xlink:href="#ArialMT-6e"/>
     <use x="350.292969" xlink:href="#ArialMT-74"/>
     <use x="378.076172" xlink:href="#ArialMT-65"/>
     <use x="433.691406" xlink:href="#ArialMT-6e"/>
     <use x="489.306641" xlink:href="#ArialMT-73"/>
     <use x="539.306641" xlink:href="#ArialMT-69"/>
     <use x="561.523438" xlink:href="#ArialMT-74"/>
     <use x="589.306641" xlink:href="#ArialMT-79"/>
     <use x="639.306641" xlink:href="#ArialMT-5f"/>
     <use x="694.921875" xlink:href="#ArialMT-43"/>
     <use x="767.138672" xlink:href="#ArialMT-46"/>
     <use x="828.222656" xlink:href="#ArialMT-5f"/>
     <use x="883.837891" xlink:href="#ArialMT-6c"/>
     <use x="906.054688" xlink:href="#ArialMT-61"/>
     <use x="961.669922" xlink:href="#ArialMT-67"/>
     <use x="1017.285156" xlink:href="#ArialMT-5f"/>
     <use x="1072.900391" xlink:href="#ArialMT-31"/>
     <use x="1128.515625" xlink:href="#ArialMT-20"/>
     <use x="1156.298828" xlink:href="#ArialMT-3c"/>
     <use x="1214.697266" xlink:href="#ArialMT-3d"/>
     <use x="1273.095703" xlink:href="#ArialMT-20"/>
     <use x="1300.878906" xlink:href="#ArialMT-35"/>
     <use x="1356.494141" xlink:href="#ArialMT-2e"/>
     <use x="1384.277344" xlink:href="#ArialMT-35"/>
    </g>
    <!-- mae = 0.65 -->
    <g style="fill:#262626;" transform="translate(503.890009 125.401061)scale(0.086061 -0.086061)">
     <use xlink:href="#ArialMT-6d"/>
     <use x="83.300781" xlink:href="#ArialMT-61"/>
     <use x="138.916016" xlink:href="#ArialMT-65"/>
     <use x="194.53125" xlink:href="#ArialMT-20"/>
     <use x="222.314453" xlink:href="#ArialMT-3d"/>
     <use x="280.712891" xlink:href="#ArialMT-20"/>
     <use x="308.496094" xlink:href="#ArialMT-30"/>
     <use x="364.111328" xlink:href="#ArialMT-2e"/>
     <use x="391.894531" xlink:href="#ArialMT-36"/>
     <use x="447.509766" xlink:href="#ArialMT-35"/>
    </g>
    <!-- samples = 244 -->
    <g style="fill:#262626;" transform="translate(497.433394 134.534318)scale(0.086061 -0.086061)">
     <use xlink:href="#ArialMT-73"/>
     <use x="50" xlink:href="#ArialMT-61"/>
     <use x="105.615234" xlink:href="#ArialMT-6d"/>
     <use x="188.916016" xlink:href="#ArialMT-70"/>
     <use x="244.53125" xlink:href="#ArialMT-6c"/>
     <use x="266.748047" xlink:href="#ArialMT-65"/>
     <use x="322.363281" xlink:href="#ArialMT-73"/>
     <use x="372.363281" xlink:href="#ArialMT-20"/>
     <use x="400.146484" xlink:href="#ArialMT-3d"/>
     <use x="458.544922" xlink:href="#ArialMT-20"/>
     <use x="486.328125" xlink:href="#ArialMT-32"/>
     <use x="541.943359" xlink:href="#ArialMT-34"/>
     <use x="597.558594" xlink:href="#ArialMT-34"/>
    </g>
    <!-- value = 0.0 -->
    <g style="fill:#262626;" transform="translate(504.366708 143.636914)scale(0.086061 -0.086061)">
     <use xlink:href="#ArialMT-76"/>
     <use x="50" xlink:href="#ArialMT-61"/>
     <use x="105.615234" xlink:href="#ArialMT-6c"/>
     <use x="127.832031" xlink:href="#ArialMT-75"/>
     <use x="183.447266" xlink:href="#ArialMT-65"/>
     <use x="239.0625" xlink:href="#ArialMT-20"/>
     <use x="266.845703" xlink:href="#ArialMT-3d"/>
     <use x="325.244141" xlink:href="#ArialMT-20"/>
     <use x="353.027344" xlink:href="#ArialMT-30"/>
     <use x="408.642578" xlink:href="#ArialMT-2e"/>
     <use x="436.425781" xlink:href="#ArialMT-30"/>
    </g>
   </g>
   <g id="patch_24">
    <path d="M 1144.642399 105.226655 
Q 1003.427517 40.085597 861.19741 -25.523775 
" style="fill:none;stroke:#262626;stroke-linecap:round;"/>
    <path d="M 1142.237471 102.221756 
L 1144.642399 105.226655 
L 1140.795523 105.347658 
" style="fill:none;stroke:#262626;stroke-linecap:round;"/>
   </g>
   <g id="text_12">
    <g id="patch_25">
     <path d="M 1124.36357 148.147737 
L 1262.097968 148.147737 
L 1262.097968 107.03141 
L 1124.36357 107.03141 
z
" style="fill:#eeab7b;stroke:#ffffff;stroke-linejoin:miter;"/>
    </g>
    <!-- knee_intensity_other_lag_3 &lt;= 1.5 -->
    <g style="fill:#262626;" transform="translate(1127.203593 116.157942)scale(0.086061 -0.086061)">
     <use xlink:href="#ArialMT-6b"/>
     <use x="50" xlink:href="#ArialMT-6e"/>
     <use x="105.615234" xlink:href="#ArialMT-65"/>
     <use x="161.230469" xlink:href="#ArialMT-65"/>
     <use x="216.845703" xlink:href="#ArialMT-5f"/>
     <use x="272.460938" xlink:href="#ArialMT-69"/>
     <use x="294.677734" xlink:href="#ArialMT-6e"/>
     <use x="350.292969" xlink:href="#ArialMT-74"/>
     <use x="378.076172" xlink:href="#ArialMT-65"/>
     <use x="433.691406" xlink:href="#ArialMT-6e"/>
     <use x="489.306641" xlink:href="#ArialMT-73"/>
     <use x="539.306641" xlink:href="#ArialMT-69"/>
     <use x="561.523438" xlink:href="#ArialMT-74"/>
     <use x="589.306641" xlink:href="#ArialMT-79"/>
     <use x="639.306641" xlink:href="#ArialMT-5f"/>
     <use x="694.921875" xlink:href="#ArialMT-6f"/>
     <use x="750.537109" xlink:href="#ArialMT-74"/>
     <use x="778.320312" xlink:href="#ArialMT-68"/>
     <use x="833.935547" xlink:href="#ArialMT-65"/>
     <use x="889.550781" xlink:href="#ArialMT-72"/>
     <use x="922.851562" xlink:href="#ArialMT-5f"/>
     <use x="978.466797" xlink:href="#ArialMT-6c"/>
     <use x="1000.683594" xlink:href="#ArialMT-61"/>
     <use x="1056.298828" xlink:href="#ArialMT-67"/>
     <use x="1111.914062" xlink:href="#ArialMT-5f"/>
     <use x="1167.529297" xlink:href="#ArialMT-33"/>
     <use x="1223.144531" xlink:href="#ArialMT-20"/>
     <use x="1250.927734" xlink:href="#ArialMT-3c"/>
     <use x="1309.326172" xlink:href="#ArialMT-3d"/>
     <use x="1367.724609" xlink:href="#ArialMT-20"/>
     <use x="1395.507812" xlink:href="#ArialMT-31"/>
     <use x="1451.123047" xlink:href="#ArialMT-2e"/>
     <use x="1478.90625" xlink:href="#ArialMT-35"/>
    </g>
    <!-- mae = 0.643 -->
    <g style="fill:#262626;" transform="translate(1169.189409 125.361392)scale(0.086061 -0.086061)">
     <use xlink:href="#ArialMT-6d"/>
     <use x="83.300781" xlink:href="#ArialMT-61"/>
     <use x="138.916016" xlink:href="#ArialMT-65"/>
     <use x="194.53125" xlink:href="#ArialMT-20"/>
     <use x="222.314453" xlink:href="#ArialMT-3d"/>
     <use x="280.712891" xlink:href="#ArialMT-20"/>
     <use x="308.496094" xlink:href="#ArialMT-30"/>
     <use x="364.111328" xlink:href="#ArialMT-2e"/>
     <use x="391.894531" xlink:href="#ArialMT-36"/>
     <use x="447.509766" xlink:href="#ArialMT-34"/>
     <use x="503.125" xlink:href="#ArialMT-33"/>
    </g>
    <!-- samples = 21 -->
    <g style="fill:#262626;" transform="translate(1167.518609 134.494649)scale(0.086061 -0.086061)">
     <use xlink:href="#ArialMT-73"/>
     <use x="50" xlink:href="#ArialMT-61"/>
     <use x="105.615234" xlink:href="#ArialMT-6d"/>
     <use x="188.916016" xlink:href="#ArialMT-70"/>
     <use x="244.53125" xlink:href="#ArialMT-6c"/>
     <use x="266.748047" xlink:href="#ArialMT-65"/>
     <use x="322.363281" xlink:href="#ArialMT-73"/>
     <use x="372.363281" xlink:href="#ArialMT-20"/>
     <use x="400.146484" xlink:href="#ArialMT-3d"/>
     <use x="458.544922" xlink:href="#ArialMT-20"/>
     <use x="486.328125" xlink:href="#ArialMT-32"/>
     <use x="541.943359" xlink:href="#ArialMT-31"/>
    </g>
    <!-- value = 1.0 -->
    <g style="fill:#262626;" transform="translate(1172.059015 143.597246)scale(0.086061 -0.086061)">
     <use xlink:href="#ArialMT-76"/>
     <use x="50" xlink:href="#ArialMT-61"/>
     <use x="105.615234" xlink:href="#ArialMT-6c"/>
     <use x="127.832031" xlink:href="#ArialMT-75"/>
     <use x="183.447266" xlink:href="#ArialMT-65"/>
     <use x="239.0625" xlink:href="#ArialMT-20"/>
     <use x="266.845703" xlink:href="#ArialMT-3d"/>
     <use x="325.244141" xlink:href="#ArialMT-20"/>
     <use x="353.027344" xlink:href="#ArialMT-31"/>
     <use x="408.642578" xlink:href="#ArialMT-2e"/>
     <use x="436.425781" xlink:href="#ArialMT-30"/>
    </g>
   </g>
   <g id="patch_26">
    <path d="M 859.384615 -26.36 
Q 859.384615 -26.36 859.384615 -26.36 
" style="fill:none;stroke:#262626;stroke-linecap:round;"/>
   </g>
   <g id="text_13">
    <g id="patch_27">
     <path d="M 807.509145 -5.812594 
L 911.260085 -5.812594 
L 911.260085 -47.008259 
L 807.509145 -47.008259 
z
" style="fill:#f6d5bd;stroke:#ffffff;stroke-linejoin:miter;"/>
    </g>
    <!-- knee_intensity_CF &lt;= 6.5 -->
    <g style="fill:#262626;" transform="translate(810.349169 -37.802389)scale(0.086061 -0.086061)">
     <use xlink:href="#ArialMT-6b"/>
     <use x="50" xlink:href="#ArialMT-6e"/>
     <use x="105.615234" xlink:href="#ArialMT-65"/>
     <use x="161.230469" xlink:href="#ArialMT-65"/>
     <use x="216.845703" xlink:href="#ArialMT-5f"/>
     <use x="272.460938" xlink:href="#ArialMT-69"/>
     <use x="294.677734" xlink:href="#ArialMT-6e"/>
     <use x="350.292969" xlink:href="#ArialMT-74"/>
     <use x="378.076172" xlink:href="#ArialMT-65"/>
     <use x="433.691406" xlink:href="#ArialMT-6e"/>
     <use x="489.306641" xlink:href="#ArialMT-73"/>
     <use x="539.306641" xlink:href="#ArialMT-69"/>
     <use x="561.523438" xlink:href="#ArialMT-74"/>
     <use x="589.306641" xlink:href="#ArialMT-79"/>
     <use x="639.306641" xlink:href="#ArialMT-5f"/>
     <use x="694.921875" xlink:href="#ArialMT-43"/>
     <use x="767.138672" xlink:href="#ArialMT-46"/>
     <use x="828.222656" xlink:href="#ArialMT-20"/>
     <use x="856.005859" xlink:href="#ArialMT-3c"/>
     <use x="914.404297" xlink:href="#ArialMT-3d"/>
     <use x="972.802734" xlink:href="#ArialMT-20"/>
     <use x="1000.585938" xlink:href="#ArialMT-36"/>
     <use x="1056.201172" xlink:href="#ArialMT-2e"/>
     <use x="1083.984375" xlink:href="#ArialMT-35"/>
    </g>
    <!-- mae = 0.679 -->
    <g style="fill:#262626;" transform="translate(835.343255 -28.598939)scale(0.086061 -0.086061)">
     <use xlink:href="#ArialMT-6d"/>
     <use x="83.300781" xlink:href="#ArialMT-61"/>
     <use x="138.916016" xlink:href="#ArialMT-65"/>
     <use x="194.53125" xlink:href="#ArialMT-20"/>
     <use x="222.314453" xlink:href="#ArialMT-3d"/>
     <use x="280.712891" xlink:href="#ArialMT-20"/>
     <use x="308.496094" xlink:href="#ArialMT-30"/>
     <use x="364.111328" xlink:href="#ArialMT-2e"/>
     <use x="391.894531" xlink:href="#ArialMT-36"/>
     <use x="447.509766" xlink:href="#ArialMT-37"/>
     <use x="503.125" xlink:href="#ArialMT-39"/>
    </g>
    <!-- samples = 265 -->
    <g style="fill:#262626;" transform="translate(831.279547 -19.465682)scale(0.086061 -0.086061)">
     <use xlink:href="#ArialMT-73"/>
     <use x="50" xlink:href="#ArialMT-61"/>
     <use x="105.615234" xlink:href="#ArialMT-6d"/>
     <use x="188.916016" xlink:href="#ArialMT-70"/>
     <use x="244.53125" xlink:href="#ArialMT-6c"/>
     <use x="266.748047" xlink:href="#ArialMT-65"/>
     <use x="322.363281" xlink:href="#ArialMT-73"/>
     <use x="372.363281" xlink:href="#ArialMT-20"/>
     <use x="400.146484" xlink:href="#ArialMT-3d"/>
     <use x="458.544922" xlink:href="#ArialMT-20"/>
     <use x="486.328125" xlink:href="#ArialMT-32"/>
     <use x="541.943359" xlink:href="#ArialMT-36"/>
     <use x="597.558594" xlink:href="#ArialMT-35"/>
    </g>
    <!-- value = 0.0 -->
    <g style="fill:#262626;" transform="translate(838.212861 -10.363086)scale(0.086061 -0.086061)">
     <use xlink:href="#ArialMT-76"/>
     <use x="50" xlink:href="#ArialMT-61"/>
     <use x="105.615234" xlink:href="#ArialMT-6c"/>
     <use x="127.832031" xlink:href="#ArialMT-75"/>
     <use x="183.447266" xlink:href="#ArialMT-65"/>
     <use x="239.0625" xlink:href="#ArialMT-20"/>
     <use x="266.845703" xlink:href="#ArialMT-3d"/>
     <use x="325.244141" xlink:href="#ArialMT-20"/>
     <use x="353.027344" xlink:href="#ArialMT-30"/>
     <use x="408.642578" xlink:href="#ArialMT-2e"/>
     <use x="436.425781" xlink:href="#ArialMT-30"/>
    </g>
   </g>
  </g>
 </g>
</svg>
